<?xml version="1.0" encoding="UTF-8"?>
<svg version="1.1" viewBox="0 0 2048 1958" width="205" height="196" xmlns="http://www.w3.org/2000/svg">
<path transform="translate(0)" d="m0 0h2048v1958h-2048z" fill="#3072FD"/>
<path transform="translate(414,956)" d="m0 0 9 1 7 4 3 6-1 9-6 11-8 14-7 19-7 26-8 22-3 7v7l5 5 7 8 4 10 2 8v13l-3 8-6 5-3 1h-12l-5-2-3-8-2-12-5 2-13 13-10 6-8 3h-7l-9-3-8-6-4-6v-10l7-11 14-13 11-9 11-14v-6l-8-9-15-9-29-11-28-11-11-6-5-4-5-8-1-4v-7l6-12 7-6 11-5h7l21 9 16 9 11 8 16 8 8 1 9-2 10-6 9-9 10-15 7-11 7-6z" fill="#FCFFFF"/>
<path transform="translate(1572,980)" d="m0 0h21l28 2 16 3 8 4 6 7 4 11v19l-3 10-7 8-8 7-1 4 12 13 14 22 3 9-5 4h-9l-13-4-8-7-11-16-8-16-5-2h-9l-2 1v9l2 15v15l-4 3-7 1h-13l-4-4-1-55v-60z" fill="#FCFFFF"/>
<path transform="translate(1194,979)" d="m0 0h18l2 1 1 18v44l-1 57-4 3h-8l-9-4-11-11-7-8-11-13-12-16-11-14-9-10-4-3 1 3 2 37v35l-2 3-16 1-6-2v-82l1-36 2-2 9 1 8 3 12 11 2 4h2l8 10 11 13 13 17 7 9 4 4 4 5 1-25 1-51z" fill="#FCFFFF"/>
<path transform="translate(666,978)" d="m0 0 9 1 9 6 6 10 9 20 12 30 10 28 8 20 1 7-5 2h-18l-5-2-2-4-3-17-1-2-3-1h-47l-4 4-4 15-4 5-5 2h-19l-1-1 1-9 7-15 11-31 13-33 11-23 9-10z" fill="#FCFFFF"/>
<path transform="translate(1475,979)" d="m0 0h13l8 5 7 11 10 22 15 38 9 24 5 15v7l-6 2-12-1-6-3-5-8-5-13-2-2-41-1-7 2-3 11-6 9-3 3-8 2h-14l-2-4 12-30 14-39 10-25 7-14 9-10z" fill="#FCFFFF"/>
<path transform="translate(1392,977)" d="m0 0h9l4 4-1 6-10 13-9 12-9 11-11 12 6 9 9 10 8 12 10 13 7 11 1 9-4 3-9 1-9-2-8-5-20-28-11-15-6-4-11-2 1 33v18l-2 4-5 1h-10l-10-2-1-3 1-117 2-1h20l4 3v46l11-2 8-7 10-13 9-11 9-10 10-6z" fill="#FCFFFF"/>
<path transform="translate(844,977)" d="m0 0h10l4 4-1 5-12 15-12 16-11 15-2 5 6 8 10 14 12 17 11 16 1 8-4 2h-14l-9-3-5-5-8-10-10-16-11-14-5-4-2-1-10-1 1 42-2 10-5 2h-15l-5-2-1-16v-99l4-4 2-1h11l7 3 3 5v42l12-4 5-4 10-14 9-12 11-12 12-6z" fill="#FCFFFF"/>
<path transform="translate(1e3 980)" d="m0 0h73l3 1 1 2v16l-2 2h-45l-4 1-1 3v23h33l5 3 1 1v8l-2 8-2 2-6 1-22 1-7 2-1 6v20l49 1 3 3 1 3v11l-3 3-3 1h-67l-5-1-1-3v-117z" fill="#FCFFFF"/>
<path transform="translate(891,980)" d="m0 0h63l10 1 2 2v10l-2 7-1 1h-31l-16 1v26h31l6 2 2 3v13l-1 3-2 1-32 2-4 1-1 4v24h24l22-1 4 4v16l-7 2h-65l-3-2-1-5-1-51v-23l1-39z" fill="#FCFFFF"/>
<path transform="translate(598,977)" d="m0 0h8l3 2-1 7-20 35-11 20-8 15-2 12v25l-2 7-4 3h-12l-6-2-2-4v-35l-3-9-7-11-10-18-9-16-12-23-1-4 2-2 8-1 11 4 9 8 9 15 10 23 4 5h4l2-5 12-25 9-14 8-7z" fill="#FCFFFF"/>
<path transform="translate(348,941)" d="m0 0h14l12 6 5 6 2 5v10l-3 8-8 9-8 5h-12l-9-4-7-5-5-10v-11l4-8 7-7z" fill="#FCFFFF"/>
<path transform="translate(668,1007)" d="m0 0 5 1 5 10 7 26 3 11v3l-4 1-32-1-1-2 8-26 7-21z" fill="#3072FD"/>
<path transform="translate(1602 1e3)" d="m0 0 18 2 8 4 3 4 1 3v7l-4 8-9 6-10 4h-9l-4-3-1-5v-17l1-10 2-2z" fill="#3072FD"/>
<path transform="translate(1483,1007)" d="m0 0 4 4 9 26 6 16v5h-38l-1-2 12-31 5-15z" fill="#3072FD"/>
</svg>
