<?xml version="1.0" encoding="UTF-8"?>
<svg version="1.1" viewBox="0 0 932 996" width="233" height="249" xmlns="http://www.w3.org/2000/svg">
<path transform="translate(0)" d="m0 0h932v996h-932z" fill="#F9FBFD"/>
<path transform="translate(445,101)" d="m0 0h6v2l2-2h8l15 7 7 4v2l5 2 9 10 2 7 1 7 7 5 5 3v3h2l2 12 2 14 1 1 1 18 7 14v19l-6 18-7 6h-5v13l16 2 7 2 8 1v2l11 1v2l11 2 16 6 7 2 12 5 20 10v2l5 1v2l5 1v2l5 1v2l5 1 4 4 3 1v2h3v2l4 1 1 2 4 2v2h3l2 3 3 1 9 9 13 12 5 5 8 10-1 7-5 10-1 9v14l1 14h2l1 7h2l5 9 11 11 4 1 3 3 12 5 4 1h16l4 9 7 25 5 25v6h2v8l-5 2h-6v2l-7 3-5 5-4 2-3 5-5 5-4 9h-2l-2 10v18l2 13h2l3 6v3h2l3 5 7 7 3 1v2h3v2l5 1v2l6 2-1 8-7 20-4 13-3 7h-2l-1 7-9 16-2 6h-2l-2 7h-2l-1 5-6 7-1 4h-2v3l-5 5-3 4-1 3-3 3-6 7-9 9-3 5-10 9-8 9-7 4-9 7-5 5-14 10-14 8-10 6-19 9-20 8-24 8-10 1 1-10 1-25 9-7 9-10 11-16 2-4 3-2 3-7 1-2h2v-7l-6 4-10 12-8 10-10 13-4 7-2-1v-11l4-7 7-10 4-7 3-3 3-7 6-3 3-4 4-4 1-3-1-1-4-1-11 3-2 2-9 2-7 2-11 2-32-1-4-1-1-3h2l1-3h2l1-7-5-2-1-4 1-2 18-1 8-2 9-5 6-9 4-11 1-12v-15l-1-13v-53l-3-11-1-5-3-1-5-5-3-2v-2l-6-2-2-6-12-64-3-24-6-40-1-4-16 1-4-2v-2l-5-1-7-4-4-1 3 5 2 9 1 25-2 28-2 13-6 46-3 19-113 1h-168l-3-1v-44l2-23 4-23 3-16h2l1-7 8-24 18 4 8 1h20l16-2 10-2v-2l11-5 11-7 10-9 9-9 7-10 7-14 6-20v-41l-5-14-2-3v-5h-2l-3-5 1-4 5-1v-2l6-2 3-3 16-8 9-2v-2l7-3 8-1v-2l11-2v-2h5v-2h2l-3-5-4-5-6-15-2-12v-26l-2-9-6-9-2-8-2-4v-11l-2-3 3-7 5-2-1-4v-7l3-8 5-1v-2l6-3 1-2h2l2-4 6-2 2-7 4-1v-2l6-1v-2l8-4 14-6z" fill="#AAC0D1"/>
<path transform="translate(445,101)" d="m0 0h6v2l2-2h8l15 7 7 4v2l5 2 9 10 2 7 1 7 7 5 5 3v3h2l2 12 2 14 1 1 1 18 7 14v19l-6 18-7 6h-5v13l16 2 7 2 8 1v2l11 1v2l11 2 16 6 7 2 12 5 20 10v2l5 1v2l5 1v2l5 1v2l5 1 4 4 3 1v2h3v2l4 1 1 2 4 2v2h3l2 3 3 1 9 9 13 12 5 5 8 10-1 7-5 10-1 9v14l1 14h2l1 7h2l5 9 11 11 4 1 3 3 12 5 4 1h16l4 9 7 25 5 25v6h2v8l-5 2h-6v2l-7 3-5 5-4 2-3 5-5 5-4 9h-2l-2 10v18l2 13h2l3 6v3h2l3 5 7 7 3 1v2h3v2l5 1v2l6 2-1 8-7 20-4 13-3 7h-2l-1 7-9 16-2 6h-2l-2 7h-2l-1 5-6 7-1 4h-2v3l-5 5-3 4-1 3-3 3-6 7-9 9-3 5-10 9-8 9-7 4-6 4v-3l4-4 7-11 7-10 6-11 8-16 11-23 8-12 4-8-2-11-6-11-2-1v-2h-2l-4-6-6-5-5-2v-2l-7-1v-1h9v2l5 1 6 4 10 9v2l5-2 5 2v-3h2l-2-11-3-3v-2l-6-2-19-9-3-1h-26l-9 4-3 7-3 2v2l9 1v2l-11 6-6 5-2 3 1 4 8-3h7v1l-10 3-5 4-8 17-5 18v22l-3 15-4 8-5 9-4 4-8 7-7 11-7 13-9 8-8 1 2-3 9-5 2-5 1-17 2-5 3 4 1-1v-8l-3-3 3-9 5 2 2 9 1 1 5-10 1-3 1-22 4-2 6 1v2h3l3-17v-9l-3-10-6 1-3-2v-3l-4-2v-2l-3-1v-2l-3-1-1-5h-2v-2h-3l-1 10-6 2-6 10-3 1-5-2-1-4 1-5 4-1 2-25 2-6-3-1v-6l7-10 14-14 4-2 4-8 5-19 5-18v-5l-3 1h-8l-5-2 1-3 6 1 4-4 5-10 1-15 2-19 2-7 1-10 2-8-1-7-7 2-7 3h-11l-18-6-13-4-7-1-1-3 10 2 30 10 8-1 21-11 4-3h2l1-10 2-1 4 1-1-6-1-7h-2l-1 7h-2v-6h-9l-2-2v-3l12-2 1-1v-16l-1-24 1-17 5-10 5 1 2 4 6-1 1-4 3-3v-10l-3-3-21-11-33-15-25-11-21-8-8-4-3-4-3-12-2-4-4 9-4 13-7 16-2 5-10 14-7 6-4 3-1 4h3l1-4 2 2v4h2l-1 5-7-3-1-4h-2l-1 2-5-5-6-1h-5l-3 5-6 3h-6l-2-1 1-4 3-9-1-9-5-8v-2h-3l-3-3-3-2v-2h-3l-3-3v-2l-6-1-11-6-14-11-4-5v-2h5l5 5 8 7 6 2 7-1 8-2 10-6 4-5 3-13 2-7 2-5-1-2 2-2v-9h-5l-2 4-9 7-7 3-12 3h-9l4-2h6v-2l14-5 4-1 1-4h-6v2l-12 3-19 2-1 3-13-3-9-11v-2l6-4 3-3h2l-1 13 4 1v2l19-2 21-4 3-2-3-1-9 3h-16l-4-1-2-3-5-2 1-3 6 2v2l9-1 3-1 1-4 3-3 5-1v-2l3-2 1-3h-2v-2h-2v-2h-5l1-2 6-1 11 6v3l9 3h3l6-1 10-10 1-3 1-10-1-11-2-3-4 1-8 3-5 1v2l-5-1-2-2-5-1v-6l-5 1-2 3h-2v2l2 1-10 4-4-1v-7l9-7 12-3 3 1v-3h10l8 2-1-3-21 1-4 2-7-1h-5v-3h2l1-3 16-5 4-1 2-12v-3l-2-1 2-4-3-7-1-2 1-4-3-5-8-1-6 3-6 2-2 1-14 1-5 1-18-1-8 6-7 7-3 2h-3v7l1 2 1 12v16l6-2 2-1h18l4 1v5h5v2h2l-1 4-3-1-3 1-4 4h-2l-3-3h-6l-1 4h-7v-5h-2v-3h-3l-1 8h-3l-1-5-4-4-2-13-4-11-6-9-2-8-2-4v-11l-2-3 3-7 5-2-1-4v-7l3-8 5-1v-2l6-3 1-2h2l2-4 6-2 2-7 4-1v-2l6-1v-2l8-4 14-6z" fill="#6485A8"/>
<path transform="translate(560,342)" d="m0 0h6l24 10 35 16 25 12 8 5 1 5v8l-4 2-1 4-4 2-6-5h-3l-4 9-1 21 1 20v16l-2 2-12 1 2 4 9 1v6h2l1-7h2l3 11-1 2h-5l-2 10-15 9-15 7-9-1-11-4-25-8 1 2 14 3 24 8h11l8-4 6-1 2 5-1 9-1 2-2 13-2 14-2 19-1 8-6 10-3 2-6-1-1 2 5 1h8l3-1 1 1-1 8-7 26-4 13-4 5-5 3-13 13-5 8v6l2 1-2 20-1 9-1 2h-2l-2 8v2l6 1 4-4 4-7 5-1 2-10h3v2h2l2 5 5 4 4 4 1 3 4 1h4l4 10v9l-3 15-1 2h-3v-2l-9 1-1 22-4 10-4 4-3-11-4-1-2 8 3 3v8l-2 2-3-4-1 4-1 17-2 5-7 5-4 2 7-1 9-8 8-16 8-10 6-5h2l2-5 4-7 4-8 3-16v-21l6-21 8-15 5-4 5-2-10 2-1 2-1-6 4-5h2l1-3 10-6h3v-2h-9v-4l3-1 2-7 10-5h26l20 9 8 4 4 5 1 11h-2v3l-7-1-3 1-7-8-10-7-4-1v-2l-5 1 3 1v2l5 1 8 7 2 5h2v2l3 1 7 14 1 9-6 10-8 13-11 23-6 12-8 14-11 16-4 6h-2l-1 4-4 5-17 12-14 8-10 6-19 9-20 8-24 8-10 1 1-10 1-25 9-7 9-10 11-16 2-4 3-2 3-7 1-2h2v-7l-6 4-10 12-8 10-10 13-4 7-2-1v-11l4-7 7-10 4-7 3-3 3-7 6-3 3-4 4-4 1-3-1-1-4-1-11 3-2 2-9 2-7 2-11 2-32-1-4-1-1-3h2l1-3h2l1-7-5-2-1-4 1-2 18-1 8-2 9-5 6-9 4-11 1-12v-15l-1-13v-53l-3-11-1-5-3-1-5-5-3-2v-2l-6-2-2-6-12-64-3-24-6-40-3-14-3-27v-15l2-4 2 3h4v2l9-4h2l1 5-2 4 3-1 3-8 1-1h5l1-4 8-6 7-11 6-7 2-1v8l-5 25-11-2-4-1 4 3 6 2h7l2-12 2-14 7-24 4-1 1-3h2v-9z" fill="#AAC0D1"/>
<path transform="translate(445,101)" d="m0 0h6v2l2-2h8l15 7 7 4v2l5 2 9 10 2 7 1 7 7 5 5 3v3h2l2 12 2 14 1 1 1 18 7 14v19l-6 18-7 6h-5v13l16 2v1l-15-1 2 9 2 19 3 8 16 8v2l6-1-2 5-4 13-8 20-3 7-10 14-7 6-4 3-1 4h3l1-4 2 2v4h2l-1 5-7-3-1-4h-2l-1 2-5-5-6-1h-5l-3 5-6 3h-6l-2-1 1-4 3-9-1-9-5-8v-2h-3l-3-3-3-2v-2h-3l-3-3v-2l-6-1-11-6-14-11-4-5v-2h5l5 5 8 7 6 2 7-1 8-2 10-6 4-5 3-13 2-7 2-5-1-2 2-2v-9h-5l-2 4-9 7-7 3-12 3h-9l4-2h6v-2l14-5 4-1 1-4h-6v2l-12 3-19 2-1 3-13-3-9-11v-2l6-4 3-3h2l-1 13 4 1v2l19-2 21-4 3-2-3-1-9 3h-16l-4-1-2-3-5-2 1-3 6 2v2l9-1 3-1 1-4 3-3 5-1v-2l3-2 1-3h-2v-2h-2v-2h-5l1-2 6-1 11 6v3l9 3h3l6-1 10-10 1-3 1-10-1-11-2-3-4 1-8 3-5 1v2l-5-1-2-2-5-1v-6l-5 1-2 3h-2v2l2 1-10 4-4-1v-7l9-7 12-3 3 1v-3h10l8 2-1-3-21 1-4 2-7-1h-5v-3h2l1-3 16-5 4-1 2-12v-3l-2-1 2-4-3-7-1-2 1-4-3-5-8-1-6 3-6 2-2 1-14 1-5 1-18-1-8 6-7 7-3 2h-3v7l1 2 1 12v16l6-2 2-1h18l4 1v5h5v2h2l-1 4-3-1-3 1-4 4h-2l-3-3h-6l-1 4h-7v-5h-2v-3h-3l-1 8h-3l-1-5-4-4-2-13-4-11-6-9-2-8-2-4v-11l-2-3 3-7 5-2-1-4v-7l3-8 5-1v-2l6-3 1-2h2l2-4 6-2 2-7 4-1v-2l6-1v-2l8-4 14-6z" fill="#AD907B"/>
<path transform="translate(510,268)" d="m0 0 16 1 14 2v2l11 1v2l11 2 16 6 7 2 12 5 20 10v2l5 1v2l5 1v2l5 1v2l5 1 4 4 3 1v2h3v2l4 1 1 2 4 2v2h3l2 3 3 1 9 9 13 12 5 5 8 10-1 7-5 10-1 9v14l1 14h2l1 7h2l5 9 11 11 4 1 3 3 12 5 4 1h16l4 9 7 25 5 25v6h2v8l-5 2h-6v2l-7 3-5 5-4 2-3 5-5 5-4 9h-2l-2 10v18l2 13h2l3 6v3h2l3 5 7 7 3 1v2h3v2l5 1v2l6 2-1 8-7 20-4 13-3 7h-2l-1 7-9 16-2 6h-2l-2 7h-2l-1 5-6 7-1 4h-2v3l-5 5-3 4-1 3-3 3-6 7-9 9-3 5-10 9-8 9-7 4-6 4v-3l4-4 7-11 7-10 6-11 8-16 11-23 8-12 8-13 4-12 4-10-1-7-5-10 1-21 1-3v-7l-4-5-5-5 1-11v-14l-4-12v-14l2-17v-12l-5-6v-6l1-2h2l2-4v-6l-7-12-2-6-4-24-8-31-8-21-11-24-6-7-10-7-21-11-33-15-25-11-21-8-8-4-3-4-3-12-2-5h-6l-3-3-11-5-4-3-2-7z" fill="#266EFA"/>
<path transform="translate(213,279)" d="m0 0h17l14 3 10 3 16 8 6 4 5 5 8 9 8 13 6 16 3 14v18l-3 13-5 14-8 12-8 10h-2v2l-12 9-15 7-17 5-16 1-17-3-16-6-14-8-13-13-10-15-6-16-3-14v-19l5-19 8-16 9-11 8-8 14-9 12-5z" fill="#F2B90F"/>
<path transform="translate(662,649)" d="m0 0h26l20 9 8 4 4 5 1 11h-2v3l-7-1-3 1-7-8-10-7-4-1v-2l-5 1 3 1v2l5 1 8 7 2 5h2v2l3 1 7 14 1 9-6 10-8 13-11 23-6 12-8 14-11 16-4 6h-2l-1 4-4 5-17 12-14 8-10 6-19 9-20 8-24 8-10 1 1-10 1-25 7-5 5-1 11-11 7-11 3-4h2l1 17 2 2-1 4-3 4-4 2 7-1 9-8 8-16 8-10 6-5h2l2-5 4-7 4-8 3-16v-21l6-21 8-15 5-4 5-2-10 2-1 2-1-6 4-5h2l1-3 10-6h3v-2h-9v-4l3-1 2-7z" fill="#BA9179"/>
<path transform="translate(448,163)" d="m0 0 8 1 4 6-1 5 2 2 2 7-2 3 2 4-2 10-3 3-8 3-10 3-1 2h-2v3l8-1 4 1 4-2h21l2 4-12-2-7-1v3l-12 2-7 4-3 3h-2l1 7 5-1 6-3v-2l4-4h5v6h5l4 2v2h3v-2l7-3 6-2 5-1 2 4 1 12-1 11-5 6-5 3-2 3-8 2-2-2-6-1v-2h-2v-3l-5-2-7-3-6 2h5v2h2v2h2l-1 4-3 1v2l-5 1-1 3h-2l-1 4-3 2h-9v-2l-6-1v2l5 2 1 3h20l10-3 3 3-8 3-23 4h-13l-2-2-3-1 1-11 1-2-9 7h-2l4 6 5 6 11 3 2 1 1-4 19-2 12-2v-2h6l-1 4-14 6h-4v2l-6 1 9-1 10-3 8-4 7-6 1-2h5l1 10-3 8-2 7-3 13-6 7-11 6-10 2h-5l-9-6-5-6-3-2-5-1 4 6 17 13 10 5 4 1v2l3 1v2h3l3 3 3 2v2h3l6 10 1 9-3 9-2 4 2 1-4-1v-3h-6l-3 2h-6l-6-9-6-8-3-3-4-7-4-8-5-5-4-6-2-5-2-11h-2l-1-7-5-5-9-10-8-14-3-10-2-3h2l-3-5-4-5-6-15-2-12v-30l2 3 2 7 1 9 1 3 3 1 1 5h1l2-8h3v3h2v5h7l1-5h6l3 2v2l4-2 2-3 4-1 2 1 1-3h-2v-2h-5v-5h-22l-3 2h-5l-2-28-1-4 1-5 7-4 9-9 5-3 21 1 2-1 14-1 3-2 9-3z" fill="#E6CBBA"/>
<path transform="translate(559,500)" d="m0 0 10 2 30 10 8-1 19-10 2 1-2 2 7-1 2 6v12l1 6-1 41 2-15 2 3 1 5 2 15-2 4v7l5 2-3 4v19l2 1-5 2 1 4 33 1 19 2 26 6 2 4-15 1 15 5v24l6 11-1 8-6 15-3 7-3 2-2-11-6-11-2-1v-2h-2l-4-6-6-5-5-2v-2l-7-1v-1h9v2l5 1 6 4 10 9v2l5-2 5 2v-3h2l-2-11-3-3v-2l-6-2-19-9-3-1h-26l-9 4-3 7-3 2v2l9 1v2l-11 6-6 5-2 3 1 4 8-3h7v1l-10 3-5 4-8 17-5 18v22l-3 15-4 8-5 9-4 4-8 7-7 11-7 13-9 8-8 1 2-3 9-5 2-5 1-17 2-5 3 4 1-1v-8l-3-3 3-9 5 2 2 9 1 1 5-10 1-3 1-22 4-2 6 1v2h3l3-17v-9l-3-10-6 1-3-2v-3l-4-2v-2l-3-1v-2l-3-1-1-5h-2v-2h-3l-1 10-6 2-6 10-3 1-5-2-1-4 1-5 4-1 2-25 2-6-3-1v-6l7-10 14-14 4-2 4-8 5-19 5-18v-5l-3 1h-8l-5-2 1-3 6 1 4-4 5-10 1-15 2-19 2-7 1-10 2-8-1-7-7 2-7 3h-11l-18-6-13-4-7-1z" fill="#8299A8"/>
<path transform="translate(445,101)" d="m0 0h6v2l2-2h8l15 7 7 4v2l5 2 9 10 2 7 1 7 7 5 5 3v3h2l2 12 2 14v18l-9 16-6 15h-4l-12-29-7-11-4-11-4-10-4-4v-2l-15 1-15 4-6 3-12 2-4 1-17-1-10 4-6 4-1 2h-2l-2 4-3 4-1 4 3 28v9l2 1-2 3v-3h-2l-4-5-4-15-4-8-4-6-2-8-2-4v-11l-2-3 3-7 5-2-1-4v-7l3-8 5-1v-2l6-3 1-2h2l2-4 6-2 2-7 4-1v-2l6-1v-2l8-4 14-6z" fill="#3B281F"/>
<path transform="translate(265,453)" d="m0 0 2 1-10 30v22l-9 3-6 4-1 1 1 9 2 3v-5l4-2h6l3 2 5 1-1 4-2 4-1 3-3 1-1 2-6 2 3 10-15 11-4 5-1 9 6 17v2h-69v-44l2-23 4-23 3-16h2l1-7 8-24 18 4 8 1h20l16-2 10-2v-2z" fill="#256DFB"/>
<path transform="translate(557,588)" d="m0 0 2 3 3 13 3 23 2 14 2 34v7l2 8v11l2-1 1-11 1-15 2-4 1 4 2 1-2 20-1 9-1 2h-2l-2 8v2l6 1 4-4 4-7 5-1 2-10h3v2h2l2 5 5 4 4 4 1 3 4 1h4l4 10v9l-3 15-1 2h-3v-2l-9 1-1 22-4 10-4 4-3-11-4-1-2 8 3 3v8l-2 2-3-4-1 4-1 17-2 5-5 3 1-6-2-2v-17h-2l-2 4-8 12-11 11-3 1v-3l9-10 11-16 2-4 3-2 3-7 1-2h2v-7l-6 4-10 12-8 10-10 13-4 7-2-1v-11l4-7 7-10 4-7 3-3 3-7 6-3 3-4 4-4 1-3-1-1-4-1-11 3-2 2-9 2-7 2-11 2-32-1-4-1-1-3h2l1-3h2l1-7-5-2-1-4 1-2 18-1 8-2 9-5 6-9 4-11 1-12v-71l1-2h2v-3l8-2 2-6h2v-26z" fill="#7F9CB5"/>
<path transform="translate(736,352)" d="m0 0h21l16 4 4 2v2h3l5 5 4 5 4 4v3h2l3 6 3 17-1 17-3 6-2 6-5 5-1 3-8 6-2 3-7 3-5 1v2l-11 2h-13l-13-3-9-4-7-6-5-5v-2h-2v-3h-2l-3-7-1-6h-2l-1-3v-19l4-16h2l3-9 7-6 2-3h3v-2h3v-2l8-4z" fill="#276EFA"/>
<path transform="translate(775,538)" d="m0 0h14l7 3 9 3 2 1v2l6 2 5 5 1 3 2 1v3h2l4 8 2 7v21h-2l-1 9h-2l-2 7-2 1-1 3-5 4-3 3-14 7-7 1v2h-18v-2l-9-1-8-4-1-2-3-1-6-7-2-1v-3h-2l-2-7h-2l-3-9v-17l4-16h2l1-5h2v-3l7-6 1-2 6-2v-2l11-4z" fill="#296FF9"/>
<path transform="translate(117,625)" d="m0 0h16l17 5v2h3l6 7 2 1v3h2l6 11 2 10v10l-1 5h-2l-1 7-2 4h-2v3l-8 7-9 6h-3v2h-6v2h-20v-2h-6l-9-5-7-8-6-9-1-5h-2l-1-8v-13l2-9 7-12 3-1v-2h2l1-3 5-1v-2l7-3h5z" fill="#276EFA"/>
<path transform="translate(380,277)" d="m0 0 3 2 4 12 7 12 11 12 1 2v7l-7 10-7 6-16 8-18 10-15 10-17 8h-3l-1-29-2-12-4-10-2-3v-5h-2l-3-5 1-4 5-1v-2l6-2 3-3 16-8 9-2v-2l7-3 8-1v-2l11-2v-2z" fill="#256DFA"/>
<path transform="translate(637,553)" d="m0 0 2 3 1 5 2 15-2 4v7l5 2-3 4v19l2 1-5 2 1 4 33 1 19 2 26 6 2 4-15 1 15 5v24l6 11-1 8-6 15-3 7-3 2-2-11-6-11-2-1v-2h-2l-4-6-6-5-5-2v-2l-7-1v-1h9v2l5 1 6 4 10 9v2l5-2 5 2v-3h2l-2-11-3-3v-2l-6-2-19-9-3-1h-26l-9 4-3 7-3 2v2l9 1v2l-11 6-6 5-2 3 1 4 8-3h7v1l-10 3-5 4-8 17-5 18v22l-3 15-4 8-5 9-4 4-8 7-7 11-7 13-9 8-8 1 2-3 9-5 2-5 1-17 2-5 3 4 1-1v-8l-3-3 3-9 5 2 2 9 1 1 5-10 1-3 1-22 4-2 6 1v2h3l3-17v-9l-4-10-5-12-2-6v-7l2-1 7 2 1 3 3 2 3 6 3-3 4-17 1-21v-8l-1-2v-21l1-15 1-46z" fill="#728FA9"/>
<path transform="translate(0)" d="m0 0h5v996h-5z" fill="#140E10"/>
<path transform="translate(410,261)" d="m0 0h2l1 11 5-1 2 2h-4v2l5 2 1 3h20l10-3 3 3-8 3-23 4h-13l-2-2-3-1 1-11 1-2-9 7h-2l4 6 5 6 11 3 2 1 1-4 19-2 12-2v-2h6l-1 4-14 6h-4v2l-6 1 9-1 10-3 8-4 7-6 1-2h5l1 10-3 8-2 7-3 13-6 7-11 6-10 2h-5l-9-6-5-6-3-2-5-1 4 6 17 13 10 5 4 1v2l3 1v2h3l3 3 3 2v2h3l6 10 1 9-3 9-2 4 2 1-4-1v-3h-6l-3 2h-6l-6-9-6-8-3-3-4-7-4-8-5-5-4-6-2-5-2-11h-2l-1-7-5-5-9-10-8-14-3-10-2-3h3l2-5 15-3 5-3h3z" fill="#D6B7A4"/>
<path transform="translate(444,108)" d="m0 0 12 2 1 2 2-1 6 3v-3l5-2 5 1 7 3 7 4 8 9 2 7 1 7 7 5 5 3v3h2l2 12 2 14v18l-9 16-6 15h-4l-2-9-8-21-5-10-4-14-4-5-7-8-2-1h-16l-13 3h-6l1-2h2v-2l-11 3-7 1h-6l-1-5-2-5-2-1v-3h5l1 3h5l-1-4-2-1 1-5 8 4 1-3 6-2 2 3-2 8 6 2v-7l-1-5-3-3-2-9 5 2 2 4v4l4 1v2h2l-2-9 12 4-2-6-5-5 1-2 4 2v2l4 1 3 3 2 1-1-4 3-1-1-3 1-2h-2v-2h2l-1-2-14-7-4-1z" fill="#3B281E"/>
<path transform="translate(658,386)" d="m0 0 4 2 8 7 8 16 7 16 6 16 8 31 3 16v6h-1l-2-7-3-16-1-4h-6l-3 5h-3v8l5 1-2 5h-2l-2 4h-2l-2 4-2 3v3l8-6 4-5h2v-2h2l2-4h2l-1 5-4 6-15 12-6 5-7 1 1-8 3-12 4-8-4 2h-4l2-4 4-3h2v-2l5-4 1-2-10 6-7 4h-2v2l-9 4-2-2 7-7 7-8 5-6 4-4-18 13-7 7-2 9-6 3-3 5-6 2 4-4h2l1-10 2-1 4 1-1-6-1-7h-2l-1 7h-2v-6h-9l-2-2v-3l12-2 1-1v-16l-1-24 1-17 5-10 5 1 2 4 6-1 1-4 3-3z" fill="#7F9BB4"/>
<path transform="translate(223,742)" d="m0 0h205l1 5-1 18-24 1h-163l-4-4-7-10-2-1-1-3-4-4z" fill="#839FB8"/>
<path transform="translate(452,161)" d="m0 0h15l4 4 5 15 7 14 1 1v9l3 1 1 8 3-1 5 10 3 10-1 2-2 9-1 5-1 1-1 13 2 8-1 11-3 14-4 6-5 3-3-5-4-1-1 5-4 4-3 12-5 8h-2v2h-3l1 3-8 4h-5l-1 1h-8l-5-2-6-1-11-9-3-4v-2h5l5 5 8 7 6 2 7-1 8-2 10-6 4-5 3-13 2-7 2-5-1-2 2-2v-9h-5l-2 4-9 7-7 3-12 3h-9l4-2h6v-2l14-5 4-1 1-4h-6v2l-12 3-19 2-1 3-13-3-9-11v-2l6-4 3-3h2l-1 13 4 1v2l19-2 21-4 3-2-3-1-9 3h-16l-4-1-2-3-5-2 1-3 6 2v2l9-1 3-1 1-4 3-3 5-1v-2l3-2 1-3h-2v-2h-2v-2h-5l1-2 6-1 11 6v3l9 3h3l6-1 10-10 1-3 1-10-1-11-2-3-4 1-8 3-5 1v2l-5-1-2-2-5-1v-6l-5 1-2 3h-2v2l2 1-10 4-4-1v-7l9-7 12-3 3 1v-3h10l8 2-1-3-21 1-4 2-7-1h-5v-3h2l1-3 16-5 4-1 2-12v-3l-2-1 2-4-3-7-1-2 1-4-3-5-8-1-6 3-6 2-2 1h-13v-1l11-1 5-3z" fill="#BF9D86"/>
<path transform="translate(692,503)" d="m0 0h3v9l-4 8-4 4-2 5 12-2 11-8 2-6 2 3v6l-3 4h-2v8l5 6v12l-2 17v14l4 12v14l-1 11 5 5 4 5v7l-2 3v-2l-6-1-9-3-4-2h19l-2-3-26-6-22-2-16-2-4-1 1-3 22-2-10-3-7-1-2-4-1-5 2-1 15-2-3-1v-2h11l11 1 7 3 1 7-2 2-4 2-1 3 7-1 10-3 3 3 2 1v-11l-6-2-10-3v-2l-7-1-20-3-14-1-6-2v-3h2l2-4 8-6 3-7 9-10 10-5h2l1-3 6-3h-6l-6 2h-3v-2l-4 2-5 6-4 4-7 9h-2v-2h2l2-10-2-1 2-6v-7l4-3 11-3 5-3v-1l-5-1 1-4 7-6 1-2h2l1-5z" fill="#7F9BB5"/>
<path transform="translate(458,445)" d="m0 0 9 4 8 4v2l9 1 11-1 2 5 7 46 3 24 7 37v7l-3-3-7-2v-2l-5 2h-7l-5-3-10-4-2-3-6 1h-3l-1-2v-15l-1-14 2-13 1-15v-28l-2-12h-2l-3-11z" fill="#F9FBFD"/>
<path transform="translate(292,503)" d="m0 0 3 1 6 8 4 7 3 12 3 5 1 3 2 1v2l3 3v6l3-2 7 1 3 3-1 4h-2l-1 4-4 1-4-6-7 5-3 3-3-1-1 4-10 5h-7v-2h-2v2l-6-1-3 3-8 3h-4l-1 2h-3l-1 3-9 6h-2v2l-3 1 23 1v1h-97v-1h66l-7-19 1-9 6-7 13-9-3-9-1-6 2 2v3l3-2h3l1-3h3v-5l3-3 1-3-7-1-1-1-9 1v6l-4-4-1-9 6-5 2-1 34-3zm11 39-3 2 1 7-1 3-8-1-1-1h-6l-1 2-7 2-3 2-5 2v2l-5-1v2l-6-1-12 3-9 6-1 5h22l16-8 30-11 10-4-5-4 1-4-4-3z" fill="#E1C9BA"/>
<path transform="translate(542,689)" d="m0 0 3 4 5 9 9 12 6 6 3 5 5 3 1-2-4-5-3-1 1-4 5 2 4 2 16 1 8 3 9 4 8 1 2 5-7 2-9 2-2 5h-7l-7-3-6-3-2 3 3 1 4 6 5 5-1 5h-2l-4-8-1-1v10l-11 11-8 7-10 12-6 9-1 2 7-6 9-11 7-7 8-7 4-2 1-2-1 8-2 3v-4l-6 4-10 12-8 10-10 13-4 7-2-1v-11l4-7 7-10 4-7 3-3 3-7 6-3 3-4 4-4 1-3-1-1-4-1-11 3-2 2-9 2-7 2-11 2-32-1-4-1-1-3h2l1-3h2l1-7-5-2-1-4 1-2 18-1 8-2 9-5 6-9 4-11 1-12v-8z" fill="#ABC0D1"/>
<path transform="translate(616,791)" d="m0 0 7 2-3 7-2 2v2h-2v27l2 1-25 12-20 8-24 8-10 1 1-10 1-25 7-5 5-1 11-11 7-11 3-4h2l1 17 2 2-1 4-3 4-4 2 7-1 9-8 6-12 7-5 3 1v-2h6l3-3z" fill="#D7B8A5"/>
<path transform="translate(262,789)" d="m0 0h13l8 2 9 7 5 6 3 11v14l-2 5h-2v3l-10 8-3 3-8 2h-12l-9-4-8-7-1-3h-2l-3-9-1-9 3-12 4-6 5-6z" fill="#276EFA"/>
<path transform="translate(428,742)" d="m0 0h85v1h-18v5l5 3 1 4-4 4-2 5 36 1 13-2 5-2 9-2 1-2 12-3 7 1v2l-2 1-1 4h-2l-1 3-5 5h-3l-2 4-4 7h-2l-2 5-7 11-4 5-2 3-1-22-2-8-4-2-5-4-2-1-38-1h-247v-1l186-1z" fill="#DDDEE1"/>
<path transform="translate(728,369)" d="m0 0 3 1-1 2v4h33v5l-4 5h-2v4l3 1 4 4v4h2l4 9v11l-4 6-3 4-3 1h-22l-6-3-1-5h-2l-1-20 2-4 4-1-1-9-5 1-2 6-4 2-3 5h-3l-1 7-3 2-1 3-2 1-1 5 3 7 1 12-3-3v-2h-2v-3h-2l-3-7-1-6h-2l-1-3v-19l4-16h2l-2 9v6l3 1 1 7 3 1-1-3v-9l1-2-1-5 5-7 9-6 4-2z" fill="#3178FD"/>
<path transform="translate(637,553)" d="m0 0 2 3 1 5 2 15-2 4v7l5 2-3 4v19l2 1-5 2 1 4 12 2v1l-11 2v4l4 1v3l-2 1v4l18 1-1 2-12 3 1 3 3 1v2l-5 3-2 9-3 7-1 3h5l-1 3-6 5-2 3 1 4 8-3h7v1l-10 3-5 4-8 17-5 18v22l-3 15-4 8-5 9-4 4-8 7-7 11-7 13-9 8-8 1 2-3 9-5 2-5 1-17 2-5 3 4 1-1v-8l-3-3 3-9 5 2 2 9 1 1 5-10 1-3 1-22 4-2 6 1v2h3l3-17v-9l-4-10-5-12-2-6v-7l2-1 7 2 1 3 3 2 3 6 3-3 4-17 1-21v-8l-1-2v-21l1-15 1-46z" fill="#241C1E"/>
<path transform="translate(662,649)" d="m0 0h26l20 9 8 4 4 5 1 11h-2v3l-7-1-3 1-7-8-10-7-4-1v-2l-5 1 3 1v2l5 1 8 7 2 5h2v2l3 1 7 14 1 9-5 8-4-4-6-8v-2h-2l-5-5-8-5-14-5-5-1h-19l-8 2-1 2-1-6 4-5h2l1-3 10-6h3v-2h-9v-4l3-1 2-7z" fill="#839DB4"/>
<path transform="translate(665,685)" d="m0 0h7l12 4 12 8 1 3h2l7 10 2 3-1 4-9 16-9 19-6 12-8 14-11 16-4 6h-2l-1 4-4 5-17 12-6 3h-2v-5h2l2-4 2-3 1-6h2l-1-3 3-4 1-4 3-5 2-11 1-5 5-1 3-3h3v-2h3l1-6h2l1-7h3l4-7 2-6 3-3-1-8 2-1 2-4h2v-3l2-1 2-10 1-4 3-1v-10l-9-6-8-3-7-2z" fill="#A9826A"/>
<path transform="translate(439,168)" d="m0 0 5 1-1 3h2l1 7 3 7 1 7 1 3h2v8l-6 1-10 5h-3l-1 3-5 3-4 1-4 2h-11l-15-1-10-2 2-4 1-1v-8l-1-2v-6l4-4v-7l3-3h2l1-5 3-3h15l16-2z" fill="#E7CCBA"/>
<path transform="translate(539,314)" d="m0 0 2 2 3 9 2 8 7 4 9 4-2 3v6l-4 5-4 1-2 9-5 19-2 18-2 5h-7l-10-4v-3l15 4 1-9 3-16v-7l-4 5-2 2-7 11-9 7-1 3-6 2-3 8h-3l1-9-8 4h-3v-2l-5 1-1-5 3-11 2-3h2v2l8 4 1-4h-2l-2-5-1 3h-3l1-5 10-8 11-15 6-16 5-12 4-13z" fill="#8198A8"/>
<path transform="translate(448,163)" d="m0 0 8 1 4 6-1 5 2 2 2 7-2 3 2 4-2 10-3 3-8 3-10 3-1 2h-2v3l8-1 4 1 4-2h21l2 4-12-2-7-1v3l-12 2-7 4-3 3h-2l1 7 5-1 6-3v-2l4-4h5v6h5l4 2v2h3v-2l9-3-4 4-7 4-9 1-10-3-2 4-2 2h-3l-1 5h-4l-1-4-3-2-1-8-2-2h-4l-2 12-4 3-3-1-2 2-7 1-2 1v-2h-3l-3-3h-3v-2l-3-1-3 1-3-2-2-4h-1l-2 14-3-3-1-12-4-1-1 3h-1v-20l2 4 1 9 1 3 3 1 1 5h1l2-8h3v3h2v5h7l1-5h6l3 2v2l4-2 2-3 4-1 2 1 1-3h-2v-2h-5v-5h-22l-3 2h-5l-2-28-1-4 1-5 7-4 9-9 5-3 21 1 2-1h13l-3 2-18 2h-15l-2 7-4 1v9l-4 4v6l1 4v6l-4 5h7l3 1 23 1 4-1 5-2 2 1 1-2 4-2 1-2 12-5 3-2 3-1 1-6h-2l-2-3-2-10-2-6v-5h-2v-2l-4-1-5 1 3-3 9-3z" fill="#D6B7A4"/>
<path transform="translate(464,461)" d="m0 0 2 2 2 10v35l-2 16-1 11 1 9v14l2 2 3-2 5 1 3 3 10 4 3 2h7l5-1v2l8 1 3 2 4 22-66-1-1-1 1-14 3-18 3-27 2-9 2-20 1-22z" fill="#E9EDF2"/>
<path transform="translate(660,683)" d="m0 0 10 1-3 2 9 2 6 3 1 6h-3l-3 3 1 6-1 3v4l-1 3-9 1 1 5-4 1v7l-2 7-2 1-4-1 1 5-2 4h-5l-5-2v7l-2 6-5-2-4-1-6-14 3-16 2-3 2-9 4-10 4-8v-6l6-3 11-1z" fill="#CCA791"/>
<path transform="translate(670,461)" d="m0 0 2 1-6 5-7 8-11 12 1 1 12-5h2l-1 3-8 6-1 3 8-3h3l-1 4-2 6-2 5-5 5h-2l1 7-1 10h4l2-1h6l-2 2-2-1-2 5-3 1-1 5-3 3-1 2h2l1 3-1 4 1 8 2 1-3 4-2 6-2 5 5-3 2-2h3l-2 4-5 5-4 2-1 7h5l1 2-7 1 1 17 7 3-3 2-7 3 3 3h-6l-1-5 4-2-2-6v-14l3-3-5-3v-7l2-5-2-15-1-4-1 1-1 11-1 48-1 13h-1v-20l2-83-1-10v-7l-2-5-8 1 4-4 6-3 3-5 5-2 2-9 9-9 14-10z" fill="#607A90"/>
<path transform="translate(658,386)" d="m0 0 4 2 8 7 8 16 7 16 6 16 8 31 3 16v6h-1l-2-7-3-16-1-4-5-1-3-3v-5l-5-1 2-5h2l1-5h-3v-4h-2l-1-2-4-2-2-9-1-17-2 1-5 21-6 16-6 11-4 6h-2l3-9 1-7-3-4-2-3-4 1-1-7v-9l1-8v-3h-2v-2h-2l-2-8-1 9h-1v-10l5-10 5 1 2 4 6-1 1-4 3-3z" fill="#809CB5"/>
<path transform="translate(134,37)" d="m0 0h10v2l4 1 4 8-1 11-5 13-4 7-2 1-1 3-5 4h-3v2l-9-2-11-5v-2h-4l-2-3-7-4v-3h-2v-3h-2l-1-2v-9l5-8h3v-2l2-1h10l10 4 1-5 7-6z" fill="#F6F9FB"/>
<path transform="translate(480,380)" d="m0 0h8l7 4 1 4-3 11-2 5v15l4 36-11 2-7-1-2-1v-2l-5-1-7-4-4-2v-2l3-1 1-3v-6l1-7v-8l-2-9-2-12-2-4 3-4 11-2 2-2h3l2-5z" fill="#E6CCBA"/>
<path transform="translate(329,543)" d="m0 0 2 4 1 15-1 3 4 1 3 1 3 6-2 5-3 3-1 11h-92l2-2h3v-2l11-7 1-2h3l1-3 6-1 8-2 1-3 6 2v-2h2v2l10-2 7-4 1-3h2l3-3 8-5 4 5v2l4-2 1-3 2-1-1-4-3-4h2z" fill="#BA937A"/>
<path transform="translate(292,503)" d="m0 0 3 1 6 8 4 7 3 12 3 5 1 3 2 1-5 5-3-2-7-1-6-1h-15l-21 4-5 1-1-4-3-1-2-5 1-3 1 5 3-2h3l1-3h3v-5l3-3 1-3-7-1-1-1-9 1v6l-4-4-1-9 6-5 2-1 34-3z" fill="#E0DFE1"/>
<path transform="translate(771,560)" d="m0 0h18l1 5 1 6 5 6 9 2 1 1v10l-7 13-4 1v2l-7 3-6 1h-9l-9-5-5-5-1-5h-2l-2-8 1-9 1-3h2l1-5 5-6z" fill="#F3F6FA"/>
<path transform="translate(445,101)" d="m0 0h6v2l2-2h8l15 7 7 4-2 2-7-4-9 1v3l-6-2h-3l-5-2-7-1 4 1 6 3 4 3 4 2v2h-2v2h2l1 6-2 1-2-1 1 4-5-2v-2l-4-1-1-2h-3l6 7 1 5-11-3v2 5h-2l-2-3-2-6-7-9 1-2 5 2-2-3-3-1-1-3-6-2-1 6h-2l-1-4h-2v2h-7l-11-2v2l4-1-1 3h-5l-1 9 4 1h3v14l1 6-4-5-4-11-3-5-2-3v9l3 6v8l-3 1v-5h-2l-1 5-2 7-2-1v-7h-2l-1 2-1-2 1-4h2v2l2-1v-11h2v4l2-1-2-5v-3l-6 3v7h-2l-1-2-4 1v-2h-2l-1 5-3 1-2 2-1-1v9l-3-1v9l-4 1-1 5h-2l-2 4-1-2 3-7 5-2-1-4v-7l3-8 5-1v-2l6-3 1-2h2l2-4 6-2 2-7 4-1v-2l6-1v-2l8-4 14-6z" fill="#725240"/>
<path transform="translate(614,647)" d="m0 0h2v2l3-1 4 3 1 8 5 5 1 4 3 3 1-7h1l-1 17-4 17-4 4-3-4-1-3-3-2-1-3-7-1v7l4 12-1 2-5-1-8-11-2-5-3-14h-5l-3 9-1 2h-2l-1 2-1-4 4-12v-7h-4l-2-1 1-4 5-5 5-2 2 1 5-2 1-2 9-2v-2z" fill="#607A90"/>
<path transform="translate(692,503)" d="m0 0h3v9l-4 8-4 4-2 5 12-2 11-8 2-6 2 3v6l-3 4h-2v8l5 6v12l-2 17v18l1 7-6-1-5-2-2-5 1-2 5-1-1-7-8-4v-3l7-6v-3l-7 1 2-6 6-6v-2l-4-2 2-7h-3l-5 3-1 3 5 1-2 3-7 3-3-1 7-4h-6l-6 2h-3v-2l-4 2-5 6-4 4-7 9h-2v-2h2l2-10-2-1 2-6v-7l4-3 11-3 5-3v-1l-5-1 1-4 7-6 1-2h2l1-5z" fill="#7590A7"/>
<path transform="translate(480,225)" d="m0 0 5 1 1 3 1 12-1 11-5 6-5 3-2 3-8 2-2-2-6-1v-2h-2v-3l-5-2-7-3-6 2h5v2h2v2h2l-1 4-3 1v2l-5 1-1 3h-2l-1 4-3 2-3-1h2v-6l5-5v-4l-4-7-1-5v-8l3 1 2 3 2 1 1-5 5-3 2-3 10 2 9-1 7-4z" fill="#D6B7A4"/>
<path transform="translate(225,743)" d="m0 0h74l-1 8-1 13-1 1-55 1-4-4-7-10-2-1-1-3-2-1z" fill="#256DFA"/>
<path transform="translate(416,344)" d="m0 0 3 3 7 8 3 7 2 2v3l3 1 4 6 7 9 2 3h5l3-2 6 1 1 3 3 2-5 2-1 3 3 7 1 10 2 7v13l-1 2v7l-3 4-4-1-2-5-5-21-6-18-2-4-2 4v-5l-6-2-2-1-2 9-5 1v3l-6 2h-7l1-3 5-3 3-3 1-3 1-14 2-2h3v8l8 1-3-2-6-12-3-4-5-17z" fill="#CCA791"/>
<path transform="translate(436,340)" d="m0 0 16 1 3 1h5l7 2 4 1 12 6 7-1 5-5 4 2-1 9-1 1-1 11-1 1v10l8-1-3 7h3l1-4 2 2v4h2l-1 5-7-3-1-4h-2l-1 2-5-5-6-1h-5l-3 5-6 3h-6l-2-1 1-4 3-9-1-9-5-8v-2h-3l-3-3-3-2v-2h-3l-3-3v-2l-6-1z" fill="#BD9B84"/>
<path transform="translate(410,261)" d="m0 0h2l1 11 5-1 2 2h-4v2l5 2 1 3h20l10-3 3 3-8 3-23 4h-13l-2-2-3-1 1-11 1-2-9 7h-2l4 6 5 6 11 3 2 1 1-4 19-2 12-2v-2h6l-1 4-14 6h-4v2l-6 1 9-1 10-3 8-4h3l-2 6-9 8-4 1v2l-4 1v3l-4 1-10-4v-3l9-2h5l2-5-13 3h-10l-2-1v-2h-2v-2l-10-1-2 8-5 1v-2h-2v-2h-2l-2-10-3 1-4-6-3-3-2 2-2-5-1-2h3l2-5 15-3 5-3h3z" fill="#D5B7A5"/>
<path transform="translate(750,391)" d="m0 0h7l7 4v4h2l4 9v11l-4 6-3 4-3 1h-22l-6-3-1-5h-2v-14l4-9 4-6 2-1z" fill="#EEF3F7"/>
<path transform="translate(606,739)" d="m0 0 6 1 5 4v2h2l-1 4h-3v-2l-9 1-1 22-4 10-4 4-3-11-4-1-2 8 3 3v8l-2 2-3-4-1 4-1 17-2 5-5 3 1-6-2-2v-17h-2l-2 4-8 12-11 11-3 1v-3l9-10 11-16 2-4 3-2 3-7 1-2h2l2-12-8 7-12 11-11 13-4 2 2-6 11-13 7-8 13-12 2-2v-11l5 5 1 5h2l2-5 6-1 2 3 2 9 1-22z" fill="#607B92"/>
<path transform="translate(667,594)" d="m0 0h11l11 1 7 3 1 7-2 2-4 2-1 3 7-1 10-3 3 3 2 1v-7h1v15l5 5 4 5v7l-2 3v-2l-6-1-9-3-4-2h19l-2-3-26-6-22-2-16-2-4-1 1-3 22-2-10-3-7-1-2-4-1-5 2-1 15-2-3-1z" fill="#7793AD"/>
<path transform="translate(648,620)" d="m0 0h25l19 2 26 6 2 4-15 1 15 5-3 2-2 4h-8l-1 4-15-6-1-2 12-1-5-2-11-1-2-1v-2l4-1 1-4-9-1-8-1-6-1 3 3v2h-2v2l-12 1-3 1 2 1 25 1 5 1v2l-19 1-10 3-2 2h29l8 2v1h-16l-18 2-6 2-2 8-2 2-1 6 11-2v2l-10 5v-2h-5l2-9 2-4 1-6 4-3h2v-2l-4-1v-3l12-4-17-1-1-5 3-3-4-2v-2l-2-1 2-2 7-2z" fill="#6482A1"/>
<path transform="translate(638,409)" d="m0 0h1l1 10h2v2h2l1 8-1 5v14l5-2 5 9-2 9-3 6 3-2 11-22 4-10 3-8 2-7 2 1v9l-5 19-7 14 6-2-5 5-12 9-6 6-2 9-6 3-3 5-6 2 4-4h2l1-10 2-1 4 1-1-6-1-7h-2l-1 7h-2v-6h-9l-2-2v-3l12-2 1-1v-16l-1-24 2-16z" fill="#718CA4"/>
<path transform="translate(299,743)" d="m0 0h75v1l-6 1-2 1v3h-2v2l-4-2-2-5-7 1-2 1-1 5-4 7v5l2 2h-48v-17z" fill="#6485A9"/>
<path transform="translate(686,545)" d="m0 0h7l-4 4-3 1-3 3-11 6-9 11-1 4-4 4h-3l-1 3-3 3h-2v3l27 3 16 3 4 1v2l8 1 8 4 1 4-1 7-5-2v-2l-12 5h-6l2-5 5-2v-6l-1-2-6-2-22-2v2l4 1v1l-18 2 2 5 1 4h7l10 3 8 1v1l-21 1-9 1-1 2 8 1v1h-12l-4-2 4-4 5-2-5-2-1-1v-17l6-2-5-1-1-5 3-4 5-3 5-5h2l1-5 8-9 4-4h2v-5l-3-1 5-2v2z" fill="#6584A5"/>
<path transform="translate(421,331)" d="m0 0 4 2 11 7 10 4v2l3 1v2h3l3 3 3 2v2h3l6 10 1 9-3 9-2 4 2 1-4-1v-3h-6l-3 2h-6l-6-9-6-8-3-3 1-3 5 3 3-1-1-7-2-3-3-11-2-4-4-2-7-7z" fill="#D6B7A4"/>
<path transform="translate(252,333)" d="m0 0 4 2 1 6-7 8-14 15-17 17-5 6-5 1-11-12-10-10-3-5 2-5 5-1 8 7 5 5 4 6 5-2 5-5 11-12 9-10 7-7z" fill="#EBEBED"/>
<path transform="translate(642,688)" d="m0 0 2 4-1 5-5 10-3 8-2 8-2 5-1 9-1 3 5 12v2h7l1 2 2-5 1-7 10 1 1-8h5l2-10 1-4 3-2-1-4 1-1h9l1-6-1-5v-2l1-4h2l1-3h2v-4l4 2 1 7-3 1-2 4v9l-2 4h-7l1 3-3 10-1 2h-2v6l-2 4h-2v3h-3l-2 4-2 1-1 5h-3v2l-9 4-3-1v-2l-3 2-2 4h2l1 10-2 4-3-1-2-6-1-6-1-4-2-9-2-15 1-15 2-3v-3l2-5 2-1 1-5h2l1-5 2-9z" fill="#BD9A83"/>
<path transform="translate(480,380)" d="m0 0h8l7 4 1 4-3 8-1-2-5-1-1 3h-2v2h-2v2h-3l-3 16-2 14-4 15-2 3-8-1-1-3 3-1 1-3v-6l1-7v-8l-2-9-2-12-2-4 3-4 11-2 2-2h3l2-5z" fill="#D7B8A5"/>
<path transform="translate(424,113)" d="m0 0 6 2 1 4 4 1 1 3-5-1 6 9 2 2v5h-2l-3-8-3-1 2 10 3 1 1 8-1 4-6-1-1-4 2-2-1-5-5 2-1 6-1-4-5-2-3-1-1 4 3 1v3l2 1-4 1-3-1-1-2-5-1-1 2-2-5v-14l-2 3v-3l-5-1 1-10h6l1-2-4 1v-2h8l10 2v-2h2l1 4h2l-1-4z" fill="#3E2A20"/>
<path transform="translate(571,754)" d="m0 0 7 1v2l-2 1-1 4h-2l-1 3-5 5h-3l-2 4-4 7h-2l-2 5-7 11-4 5-2 3-1-22-2-8-4-2-5-4-2-1-38-1v-1l42-1 13-2 5-2 9-2 1-2z" fill="#E9EDF2"/>
<path transform="translate(672,650)" d="m0 0h11l8 2 15 5 10 5 4 5 1 11h-2v3l-7-1-3 1-7-8-10-7-4-1v-2h-14l-8 1h-15l2-4 5-4 5-3 1-2z" fill="#AAC0D1"/>
<path transform="translate(667,396)" d="m0 0 5 5-1 2h-2l-1 13-6 19-8 24-1-4-4-8-5 1-1-7v-9l1-8v-3h-2v-2h-2l-2-8-1 9h-1v-10l5-10 5 1 2 4 2 1-4 2h-2l-1 4 2 5v3l7 2v-13l1-2 11-2z" fill="#7F9BB5"/>
<path transform="translate(384,280)" d="m0 0 2 1v2l4 2 3 4h2l2 10h2v2h2v2l5-1v-6l1-3h7l4 2v2h2l5 9 3 2 1 3 2 1v3l12 2 7 3-2 5h-2v2l-4 1h-10l-7-3-5-5-1-2-3-1-1-4h-5v-2h-3l-1 3-4-1-9-10-8-14z" fill="#E3CAB9"/>
<path transform="translate(549,641)" d="m0 0 2 2v5l-4 1v6l3 1 1-2h3l-1 5 1 7-2 10 5 3 5-1 2 5-1 13v4h-2l-1 8 3 5-1 3-4-2-9-12-5-9-3-5v-35l3-1v-8l4-2z" fill="#7590A6"/>
<path transform="translate(689,468)" d="m0 0 6 1 3 7 2 13 6 17 3 5 1 7-7 6-9 5-10 1 3-7 5-6 2-5 1-9h-3l-5 10-1-4 2-6 3-5-5 4-2-1 8-7 3-5 1-4-4 4h-2v2l-9 9-6 3 1-6 4-5 4-4h2l1-5-4-1-1-6 1-2h3l2-5z" fill="#8199A8"/>
<path transform="translate(642,493)" d="m0 0 6 1v7l-2 1-1 6 7-2-1 4-8 7 1 6 2 5-1 3v11l-1 8 1 9 3 3-2 4 2 5-3 5-1 4h-2v5l4 3 6 2v1l-7 1 1 17 7 3-3 2-7 3 3 3h-6l-1-5 4-2-2-6v-14l3-3-5-3v-7l2-5-2-15-1-4-2 1v-28l1-33z" fill="#2C4E83"/>
<path transform="translate(495,289)" d="m0 0 4 1-1 10v15l-1 13-6 7-7 3h-17l-7 1-14 1 2-2 11-4 6-5 1-2h2l1-6 2-5 9-3 4-4h2l-1 5-6 10-5 5-5 4-5 3 5-2 10-8 5-7 4-9h2l1-5 2-6-3 1 2-5z" fill="#AD8369"/>
<path transform="translate(89,173)" d="m0 0h9v2h3l1 3v12l7 1 1 2 3 1 1 2v6h-2l-2 5-2 1h-16l-5-3-4-1v-2h-2v-15h2v-6z" fill="#2D72F7"/>
<path transform="translate(580,666)" d="m0 0 3 2 2-1v2h2l1 7-4 13 3 1 2-9 1-3h6l3 9 2 9 8 12 3 2 1-2 4 4v2l-5 1-3-2v-3l-4-2v-2l-3-1v-2l-3-1-1-5h-2v-2h-3l-1 10-6 2-6 10-3 1-5-2-1-4 1-5 4-1 2-25 2-6-3-1v-6z" fill="#758FA5"/>
<path transform="translate(134,37)" d="m0 0h10v2l4 1 4 8-1 11-5 13-4 7-2 1-1 3-5 4h-3v2l-9-2-11-5v-2h-4l-2-3-7-4v-3h-2v-3h-2l-1-2v-9l5-8h3v-2l2-1h10l10 4 1-5 7-6zm1 3-5 4-6 8v4l-6-1v-2l-9-4-6 1-5 6v7l3 6 7 6 9 3v2l7 3h8l2-2v-3l3-1v-3h2l4-8 4-10v-10l-5-5z" fill="#4E86EA"/>
<path transform="translate(559,500)" d="m0 0 10 2 30 10 8-1 19-10 2 1-2 2 7-1 2 6v12l1 6-3 115-2-2v-19l-1-5 2-13 1-21h-2l-1-6-4-1v-11l1-6 1-33 1-9v-2l-1-8-7 1v2l-8 3-4 2h-11l-18-6-13-4-7-1z" fill="#758FA6"/>
<path transform="translate(518,178)" d="m0 0h1l1 18 7 14v19l-6 18-7 6h-5v10h-1v-18l2-7-3 1v-2l4-2 5-10-1-5-4-3-4 1 1-7 9-16z" fill="#AC836A"/>
<path transform="translate(329,561)" d="m0 0h2v4l4 1 3 1 3 6-2 5-3 3-1 11h-30l4-2 10-2 4-4 4-6 1-3-3 1-5-1-28 11-12 5h-11l3-2 8-2 1-3 13-5 7-3 11-7 13-6z" fill="#B6947E"/>
<path transform="translate(531,343)" d="m0 0 1 3-3 11-2 7 1 10-2 12 6-1-2 5-9 7-1 3-6 2-3 8h-3l1-9-8 4h-3v-2l-5 1-1-5 3-11 2-3h2v2l8 4 1-4h-2l-2-7h3v2l4 1h3l4-4 2 1v-2l5-4 1-2-3-1-2-5h2l2-9 3-7z" fill="#7F9BB4"/>
<path transform="translate(459,205)" d="m0 0h7l10 2 4 5-1 8-2 4-10 1-2-2-4 2-1 3-6-1v-4l-5 1-2 3h-2v2l2 1-10 4-4-1v-7l9-7 12-3 3 1v-3h10l8 2-1-3-21 1-4 2-7-1h-5v-3l10-4z" fill="#AD856B"/>
<path transform="translate(660,668)" d="m0 0h12l15 8 9 7v2h2v3h-3l-1 4-3 1-7-3-14-5-21-3-5-2v-3l10-7z" fill="#AAC0D1"/>
<path transform="translate(692,503)" d="m0 0h3v9l-4 8-4 4-2 5 12-2 11-8 2-6 2 3v6l-3 4h-2l-1 2-7 2-4 3-5 2-4 2-9 2-3 3-1 4-8 10-6 9-4 2v-2h2l2-10-2-1 2-6v-7l4-3 11-3 5-3v-1l-5-1 1-4 7-6 1-2h2l1-5z" fill="#7F9BB5"/>
<path transform="translate(430,128)" d="m0 0 5 2 2 4v4h2l2 6 5 3v2h3l-3-6 1-2 5-1 5 5 1 3h2l4 6-8-1-2-2-11 3-7 2-6 1-9 4h-10l-1-5-2-5-2-1v-3h5l1 3h5l-1-4-2-1 1-5 8 4 1-3 6-2 2 3-2 8 6 2v-7l-1-5-3-3z" fill="#251D1D"/>
<path transform="translate(685,597)" d="m0 0h6l3 3-2 6-4 6-4 2 2 1v2l13 2 3 3-17-2-31-1-4-1 1-3 22-2-14-4-2-4v-5l10-1h14z" fill="#7F9CB6"/>
<path transform="translate(416,344)" d="m0 0 3 3 7 8 3 7 2 2v3l3 1 4 6 7 14 1 6-1 4h-2l-1-2-2 4v-5l-6-2-2-1-2 9-5 1v3l-6 2h-7l1-3 5-3 3-3 1-3 1-14 2-2h3v8l8 1-3-2-6-12-3-4-5-17z" fill="#BE9C85"/>
<path transform="translate(305,551)" d="m0 0 3 1-2 4-18 7-16 6-14 7h-22l1-5 9-6 12-3 6 1 1-2 4 1v-2l5-2 4-3 6-1 1-2h6l6 2 7-2z" fill="#D1B19D"/>
<path transform="translate(397,170)" d="m0 0 21 1 2-1h13l-3 2-18 2h-15l-2 7-4 1v9l-4 4v6l1 4v6l-4 5 6 1v2h14v1l-18 1-3 2h-5l-2-28-1-4 1-5 7-4 9-9z" fill="#D4B4A1"/>
<path transform="translate(605,749)" d="m0 0h4l1 7h4l2-2-1 5-13 26-4 10-6 10-5 10-9 8-8 1 2-3 9-5 2-5 1-17 2-5 3 4 1-1v-8l-3-3 3-9 5 2 2 9 1 1 5-10 1-3z" fill="#261D1D"/>
<path transform="translate(638,409)" d="m0 0h1l1 10h2v2h2l1 8-1 5v14l5-2 5 9-2 9-4 6h-2l-3 9-3-1-2-9-2-30-1-12 2-16z" fill="#748FA6"/>
<path transform="translate(448,163)" d="m0 0 8 1 4 6-1 5 2 2 2 7-2 3 2 4-2 10-3 3-8 3-10 3h-3l6-4 6-3 3-1 1-6h-2l-2-3-2-10-2-6v-5h-2v-2l-4-1-5 1 3-3 9-3z" fill="#D6B7A4"/>
<path transform="translate(431,157)" d="m0 0h4v2l-2 1h7l11-3h16l8 7 6 8 6 19 5 10 7 19-1 3-11-26-7-11-4-11-4-10-4-4v-2l-15 1-15 4-6 3-12 2-4 1-17-1-10 4-6 4-1 2h-2l-2 4-3 4-2 3 1-8 1-2h2l1-3 6-5v-7l3-3 1 7-2 3 8-4 8-2h9l5-5 8-2z" fill="#6D4C3A"/>
<path transform="translate(657,624)" d="m0 0h11l4 1 8 1 9 2-1 4-4 1v2l13 1 7 2-2 2-11 1 4 5h-42l-1-2 6-3 7-2h19v-2l-30-1-3-2 4-2h12v-2h2l-3-4-9-1z" fill="#6D89A3"/>
<path transform="translate(615,590)" d="m0 0 5 1 2 4v17l-1 3v10l1 3v10l-2 2-5 2-9 1-4 1-1 2-3 1-3 3-2-1 5-5 4-2 4-8 5-19 5-18v-5z" fill="#7F9CB6"/>
<path transform="translate(408,319)" d="m0 0 4 2 5 6 18 18 4 13 2 4-1 5-4 1-8-6-5-10-5-5-4-6-2-5-2-11h-2z" fill="#E5CAB8"/>
<path transform="translate(675,476)" d="m0 0 2 1-2 5 5-3 2-1 1 4 5 1-2 5h-2l-2 4h-2l-2 4-2 3v3l8-6 4-5h2v-2h2l2-4h2l-1 5-4 6-15 12-6 5-7 1 1-8 3-12 4-8-4 2h-4l2-4 4-3h2v-2z" fill="#7E9BB4"/>
<path transform="translate(515,304)" d="m0 0 5 2 12 5 1 3 6-1-2 5-4 13-8 20-4 6-1-2v-7l2-4-1-11v-7l-5-11z" fill="#2B201F"/>
<path transform="translate(579,771)" d="m0 0h2v7h-2l-3 9-4 3-4 8-13 17-8 8-6 3v-10h2l3-6 8-10 11-14 9-11z" fill="#E8ECF1"/>
<path transform="translate(451,284)" d="m0 0h6l-1 4-14 6h-4v2l-6 1 9-1 10-3 8-4h3l-2 6-9 8-4 1v2l-4 1v3l-4 1-10-4v-3l9-2h5l2-5-13 3h-10l-2-1v-2h-2v-2h-2l1-2 2 1 1-4 19-2 12-2z" fill="#BF9C85"/>
<path transform="translate(470,234)" d="m0 0 6 1 2 5v7l-2 4h-2v2l-9 3h-8l-7-3-6-5 3-7 16-3z" fill="#E7CCBA"/>
<path transform="translate(653,683)" d="m0 0h7l2 2-13 1-7 3-3 6-1 7-2 5h-2v5l-3 1-2 6 1 2-2 4-1 14 2 15v5h-2v6l-6 11-3 3-4 8-6 4-5 2-6 4 2-4 7-8 5-2 2-5 4-7 4-8 3-16v-21l6-21 8-15 5-4z" fill="#AD856C"/>
<path transform="translate(476,134)" d="m0 0 3 2v2l5 1 7 6v3h2l1 8-1 1-1 7-5 3-9-3-9-8-1-4-4-1-1-4h2l3 3 2 1-3-10v-3l7 6v2l7 2 1 2h2l-9-13z" fill="#251D1E"/>
<path transform="translate(625,718)" d="m0 0 1 3-1 5v22l-3 15-4 8-5 9-4 4-8 7-3 3 3-9 14-28h-3l-2-1-1-7-3-1 6-1 3 1v2h3l3-17v-13h4z" fill="#35251E"/>
<path transform="translate(406,271)" d="m0 0h2l-1 13 4 1v2l19-2 21-4 11-2h5l-4 8-7 5-7 3-12 3h-9l4-2h6v-2l14-5 4-1 1-4h-6v2l-12 3-19 2-1 3-13-3-9-11v-2l6-4z" fill="#B38C74"/>
<path transform="translate(5,91)" d="m0 0h1v68l17-9 11-6 12-8h2l1-3 6-4 9-10 7-14 1 4-3 6-6 10-8 8-17 12-14 8-16 8h-2v228h-1z" fill="#C0CFDC"/>
<path transform="translate(369,215)" d="m0 0 2 4 1 9 1 3 3 1 1 5h1l2-8h3v3h2v5h7l1-5h6l3 2v2l4-2 2-3 4-1 2 1 1-3h-2v-2h-5l1-4 9 6 2 5v8l-4 3-3-1-2 2-7 1-2 1v-2h-3l-3-3h-3v-2l-3-1-3 1-3-2-2-4h-1l-2 14-3-3-1-12-4-1-1 3h-1z" fill="#D7B8A5"/>
<path transform="translate(477,297)" d="m0 0 3 1 2 4h2l6-4 3 1-1 6-2 5h-2l-3 9-8 10-11 8-3-1 10-7 4-5h2l2-5 5-10-7 6-8 1-3 11h-2l-2 4-9 6-9 2-3-2 4-2 6-1 4-3v-2h3v-2l4-4 3-6 2-10 3-4h2l1-5z" fill="#AD8E77"/>
<path transform="translate(299,743)" d="m0 0h43l-2 1v2l-3 1-2 2-7 4-4 5h-13l-1-3h-11z" fill="#607A91"/>
<path transform="translate(715,822)" d="m0 0h7l7 4 5 6 1 9-3 8-4 5-5 3h-11l-5-3-6-7-1-3v-10l5-8 6-3zm0 5-8 4-3 4v8l3 6 5 3h9l6-5 2-3v-9l-3-6-2-2z" fill="#88A5C0"/>
<path transform="translate(847,233)" d="m0 0h13l6 3 5 6v14l-6 8-8 4-9-1-8-7-3-6v-9l6-9zm4 4-6 4-3 5v9l5 6 4 2h6l6-4 3-3 1-3v-7l-1-3h-2l-1-4-5-2z" fill="#89A7C5"/>
<path transform="translate(717,639)" d="m0 0 3 1-2 7h-5v4h2v2l4 1-1 5h-2l2 1-1 3-9-4-20-9h-26l-9 4-3 7-3 2v2l8 1v1l-10 2-1-3 2-5 2-3 2-7 6-2 18-2h14v-1l6-1-6-2v-1h6l12 5 1-3 8-1z" fill="#6584A5"/>
<path transform="translate(317,555)" d="m0 0 5 5v3l-7 1v2l-10 5-13 4-12 3-13 7h-3v3l-9 3-12 1 2-2h3v-2l11-7 1-2h3l1-3 6-1 8-2 1-3 6 2v-2h2v2l10-2 7-4 1-3h2l3-3z" fill="#D7B8A5"/>
<path transform="translate(672,665)" d="m0 0h10l11 4 5 5 3 4v2h2v2l3 1 7 14 1 9-5 8-4-4-6-8v-2l-2-1h3l1-4 1-5-1-3v-2l-6-7-22-11z" fill="#8397A5"/>
<path transform="translate(673,414)" d="m0 0 2 1 1 17 2 9 4 2v2h2v4h3l-1 5-8 4-10 10-3 1 1-3 4-4-8 2 2-6 4-8 5-19v-9l-2 6-3 8-1-3 4-17z" fill="#7F9BB3"/>
<path transform="translate(320,574)" d="m0 0 8 1 1 3-4 4-3 5-7 3-10 2h-27l4-3 23-9z" fill="#D5B5A2"/>
<path transform="translate(292,503)" d="m0 0 3 1-1 4-21 5-12 1v2l-16 5v6l-4-4-1-9 6-5 2-1 34-3z" fill="#F3F6F9"/>
<path transform="translate(541,655)" d="m0 0 2 3 4 7 5 2-1 2h-2l-1 8 3 1 1 6-1 3 6 2 1 4v7h-2l-1 7-4-2-6-9-4-8z" fill="#6787AA"/>
<path transform="translate(606,671)" d="m0 0h7l1 2 7 3 4 4 2 5 2 1v2h2l1-2-2 12-4 4-3-4-1-3-3-2-1-3-7-1-1 7-2-4-2-15z" fill="#2E4D80"/>
<path transform="translate(382,797)" d="m0 0 5 1 4 4 1 4h4v-6l4 1 3 2 1-4h6l1 1v12l-1 1h-5l2-4 1-6h-3l-1 7h-4l-1-4-2 6-6 1-1-4-3 1v2l-2 1h-11l2-7h2l-2-4-3-1-1 11-4-1 1-9 3-3 6 1 2 2z" fill="#8F9195"/>
<path transform="translate(583,769)" d="m0 0 2 4-2 6h-2l2 11v25l-6 4 1-6-2-2v-17h-2l-2 4-8 12-11 11-3 1v-3l9-10 11-16 2-4 3-2 3-7 1-2h2z" fill="#637D93"/>
<path transform="translate(611,688)" d="m0 0 7 1 2 4 3 2 3 6 3-3 2-3 1 3 2-1-7 21h-2v2h-2l-1 2v-2h-2l-7-15-3-9v-7z" fill="#271E1E"/>
<path transform="translate(592,810)" d="m0 0 10 3-3 12-7 4-8 5-6 1-3-3-2-4 1-4 6-4 7-6 3-3z" fill="#E5CAB7"/>
<path transform="translate(641,707)" d="m0 0 3 3 3 1v2h2l3 6 2 1 1 9-3 1-5-1v10l-5 1-5-4v-3h-2v-6l-1-5 3-7 1-4h2z" fill="#D7B8A5"/>
<path transform="translate(311,492)" d="m0 0 7 1 1 3 5 2 3 2 2 15v6l-23-1-1-3 11-1v-3l-6-1-5-1 3-3 2-1v-2l-10-3-5-3v-1h6l16 5 8 1v-3l-5-2-9-6z" fill="#6989A9"/>
<path transform="translate(623,641)" d="m0 0 4 2 3 4 3 8 2 5-2 11-3-1-2-3-1-4-1-3-3-1-1-8-4-2h-2v-2l-5 3h-2v2l-5 2h-4l-1 3-6 2-2-1-5 3-2-1 7-7 7-3 2-2 9-1 4-3z" fill="#758FA5"/>
<path transform="translate(656,686)" d="m0 0 13 1 3 2-1 3h-3l-1 4-2 4h-3v3h3 2l2 9-8 2-5-1-4-2-2 1-2-1 2-10 5-5-1-8z" fill="#D7B8A5"/>
<path transform="translate(397,340)" d="m0 0 2 1-3 11-7 14-4 17-2 23-1 27v12l-2 3-1-2v-43l2-27 3-13 5-9 3-6z" fill="#7E9BB5"/>
<path transform="translate(593,695)" d="m0 0h3v2h2l2 5 5 4 4 4 1 3 4 1h4l3 6-1 4-2-6h-2l1 6-2 1h-3l-5-2-4-7h-6l-3-2v-2l-3 1-3-1-5 1 2-6 6-2z" fill="#8097A7"/>
<path transform="translate(700,497)" d="m0 0 3 1 5 12 2 6-2 4-11 8-9 2-4-1 3-6 5-6 2-5h2l2-12z" fill="#748FA6"/>
<path transform="translate(675,216)" d="m0 0 8 1 5 5 1 7-2 5-4 3-8 1-5-3-3-6 1-7z" fill="#94AEC4"/>
<path transform="translate(641,623)" d="m0 0h4l1 3 7 3-3 3-4 2-1 3h33l6 1v1l-19 1-10 3-2 2h29l8 2v1h-16l-18 2-6 2-2 8-2 2-1 6 11-2v2l-10 5v-2h-5l2-9 2-4 1-6 4-3h2v-2l-4-1v-3l12-4-17-1-1-5 3-3-4-2v-2l-2-1z" fill="#2C4E83"/>
<path transform="translate(453,162)" d="m0 0 8 1 4 4v2l2 1v4h2l2 11v7l-3 7h3l1 5-5 1-5-1-4-1h2l2-12v-3l-2-1 2-4-3-7-1-2 1-4-3-5-5-1z" fill="#CCA791"/>
<path transform="translate(574,794)" d="m0 0h2l1 17 2 2-1 4-3 4-4 2h-8l-9-2 2-4 8-8 7-11z" fill="#AAC0D1"/>
<path transform="translate(501,809)" d="m0 0 5 1 4 5 5-5 5-1 5 3v13l-4 3h-7v-2l-6-2-2 4h-6l1-5 6-1-2-9-1-1-1 9h-3l-1-2v-7z" fill="#C7CED4"/>
<path transform="translate(386,220)" d="m0 0h18l4 1v5h5v2h2l-1 4-3-1-3 1-4 4h-2l-4-4-5-1-3 5-4-1v-5l1-1-6-2 1-4z" fill="#BA957E"/>
<path transform="translate(620,733)" d="m0 0h1v7l-2 6h-2l-5-5-6-1-1 1-1 23-2-1-3-11h-6l-1 2-1-4-4-2-4-5-3-3 2-4 6 3 7 3h7l2-5 9-2z" fill="#7D99B2"/>
<path transform="translate(744,571)" d="m0 0h3l2 7v16l-3 3-5 1-3 1v7l-2-3-2-6v-17l1-6 2 3h2l1-3h2v-2z" fill="#3078FD"/>
<path transform="translate(134,37)" d="m0 0h10v2l4 1 4 8-1 11-1 4h-3l-1-17-4-4-7-1-5 5-5 6-1 4-6-1v-2l-4-1-5-2-6 1h-3v-3l3-3h10l10 4 1-5 7-6z" fill="#4684F0"/>
<path transform="translate(530,340)" d="m0 0 2 1-2 5-3 10-4 10v2l1 3 2 1-2 4-4 2v2l-4 1-4 5-2-3-3-1v-2l-3 1-1 4h-3l1-5 10-8 11-15 5-13z" fill="#A9BCCB"/>
<path transform="translate(616,791)" d="m0 0 7 2-3 7-2 2v2h-2v27l2 1-6 1 1-10v-3l-2-1v-10l-3-1v-4l-5-1h-4l-6 1v-2l7-5 3 1v-2h6l3-3z" fill="#CBA791"/>
<path transform="translate(356,412)" d="m0 0 3 1-3 9-3 10-1 11-14 28h-2v-7l11-33 7-15z" fill="#7F9CB6"/>
<path transform="translate(667,594)" d="m0 0h11l11 1 7 3 1 7-2 2-4 2-1 3 7-1 10-3 3 3 2 1v-7h1v10l-1 7-6-2v-4l-2-1-7 1-10-1-1-3 2-1 3-5 2-6-2-2h-6l-4 2h-24l2 9h-3l-2-4-1-5 2-1 15-2-3-1z" fill="#748FA6"/>
<path transform="translate(399,168)" d="m0 0 17 1v2l2 1-21-1-8 6-7 7-3 2h-3v7l1 2 1 12v16l4 1v3l6 1-1 7h3l3-5 5 1v1l-5 1-1 4h-7v-5h-2v-3h-3l-1 8h-3l-1-5-4-4 1-4v2l3 1v2h3l-1-1-2-16-2-22 3-6 4-5h2l2-4 11-6z" fill="#B68E75"/>
<path transform="translate(623,782)" d="m0 0 2 1 1 9-1 11-3 1v6h-2l1 4-1 3h-2l1 5-3 3-1-13 1-8h2l-1-3 4-5 1-3-6-1-4 1-1 3-4 1-4-1v2l-5 1-4 3 2-5 8-6 8-3 4-1v-2z" fill="#BD9B84"/>
<path transform="translate(189,355)" d="m0 0 5 1 13 13 2 4 4 2-4 3h-2v4h-3l-16-16-3-5 2-5z" fill="#F7F5F5"/>
<path transform="translate(748,397)" d="m0 0 9 3 1 3v5l1 1-1 7-6 5h-6l-4-5v-3l8 1-1-5-6 1-3-2v-3h2v-5z" fill="#A2B9CC"/>
<path transform="translate(506,216)" d="m0 0 1 2h3l1-2 6 5-1 6-4 8-2 2h-3l3 1-1 7-1 5-3 2 1 4h-2l-4-10v-18l2 1 3 10 1-11-3-2z" fill="#AD8369"/>
<path transform="translate(784,387)" d="m0 0 7 5 1 3v7l-2 10-2 7-5 2-4 9h-2v2l-8 4-1-3h2l-2-4-4 1-1-2 6-9 1 4v6l5-3 5-5 3-9h2v-13l-2-3z" fill="#2E77FF"/>
<path transform="translate(658,386)" d="m0 0 4 2 6 8-4 10-10 2-2 1v13l-7-1-3-9 2-5 4-1 6-2 1-4 3-3z" fill="#90A4B6"/>
<path transform="translate(436,564)" d="m0 0h8l3 2-1 5-2 2v6l-9 2 1 8 7 1 1-2v2l6-1 1 2-21 1-2-2 2-7 1-13 1-3z" fill="#7F9BB5"/>
<path transform="translate(435,212)" d="m0 0h2v3l8-1 4 1 4-2h21l2 4-12-2-7-1v3l-12 2-7 4-3 3h-2l1 7 5-1 6-3v-2l4-4h5l-1 4v-2h-3l-1 3 5 5-5 1-5-1-3 1-4 4-4 1-1-4h-2v-9l4-12z" fill="#BB9780"/>
<path transform="translate(551,773)" d="m0 0h5l1 1-1 9-7 11-6 8-2 3-1-22-1-4 2 1 1-3 7-3z" fill="#E8EBF0"/>
<path transform="translate(596,765)" d="m0 0 4 2 1 9 2-1-2 6-4 4-3-11-4-1-2 8 3 3v8l-2 2-3-4-1 4-1 17h-1l-1-21-1-4v-7h2l1-4 5-6 2-3h2v2h2z" fill="#2C4D82"/>
<path transform="translate(670,408)" d="m0 0 2 1v7l-5 21-6 16-6 11-4 6h-2l3-9 7-20 5-15z" fill="#ABC1D2"/>
<path transform="translate(448,257)" d="m0 0h3l1 3-1 9-2 4v3l-14 5h-9l-4-1-2-3-5-2 1-3 6 2v2l9-1 3-1 1-4h5v-2l6-4z" fill="#B08D75"/>
<path transform="translate(452,259)" d="m0 0h1l1 9h11l5 5 1 5-6 7v-3l1-2h-11l-4-2-9 3h-7l3-2 8-3h3l-1-4 2-3 1-9z" fill="#BD9B84"/>
<path transform="translate(487,655)" d="m0 0h6l4 3 1 4v11l-3 5-1 1h-8l-4-5 2-1 9 1 3-3v-2l-3-1v2l-5 1-6-5 1-8z" fill="#2B201F"/>
<path transform="translate(526,210)" d="m0 0h1v19l-6 18-7 6h-5v10h-1v-15h3v2h2l-2-3 1-11 4-3v4l4-1 1-6-1-2 2-9 2 1 1 4z" fill="#CDA993"/>
<path transform="translate(684,593)" d="m0 0 12 1v2l8 1 8 4 1 4-1 7-5-2v-2l-12 5h-6l2-5 5-2v-6l-1-2-11-3z" fill="#617B91"/>
<path transform="translate(686,632)" d="m0 0 19 1 15 5-3 2-2 4h-8l-1 4-15-6-1-2 12-1-5-2-11-1-2-1v-2z" fill="#617D97"/>
<path transform="translate(507,655)" d="m0 0h6l6 5v13l-3 5-2 1h-7l-2-3 1-3 1 1h7l1-1v-5l-3 3h-4v-2l-3-1-1-2v-8z" fill="#2D2322"/>
<path transform="translate(464,461)" d="m0 0h1l2 20-1 26-3 26-4 23-1 10-1 1-1 10-2 10h-1v-9l3-18 3-27 2-9 2-20 1-22z" fill="#E1E0E2"/>
<path transform="translate(583,747)" d="m0 0 4 3v2h-2v7l2 1-1 7-2 2-1-3-8 7-12 11-11 13-4 2 2-6 11-13 7-8 13-12 2-2z" fill="#7D95A8"/>
<path transform="translate(188,455)" d="m0 0 18 4 8 1h27v1l-5 1h-24l-15-2 6 8 3 3-9 5-3 1v-3l-6-1v-7l4-8h-5z" fill="#2E77FF"/>
<path transform="translate(635,649)" d="m0 0h6l1 4-3 4-1 16 4 1-1 2h-2l-2 10 9-3h7v1l-10 3-5 4-3 6-4 2v-10l2-8z" fill="#0F0C10"/>
<path transform="translate(484,309)" d="m0 0h2l-1 5-6 10-5 5-5 4-9 5-8 2h-6l2-2 11-4 6-5 1-2h2l1-6 2-5 9-3z" fill="#6D4C3A"/>
<path transform="translate(92,179)" d="m0 0h5l5 3v12l-2 7-7 1-3-2-2-14 3-3z" fill="#2E77FE"/>
<path transform="translate(737,376)" d="m0 0h26v5l-4 5-2 1h-16l-3-5-2-1z" fill="#E5ECF2"/>
<path transform="translate(239,516)" d="m0 0 2 3 3 7v-5l4-2h6l3 2 5 1-1 4-2 4-1 3-3 1-1 2-6 2-1-5h-2l-5-9z" fill="#F2F5F8"/>
<path transform="translate(738,430)" d="m0 0h20v4l-5 3 2 1v2l-7 4-1-1-9-1-4-3-2-1 1-3h3l1-4z" fill="#2E77FF"/>
<path transform="translate(637,424)" d="m0 0 2 2 3 32 1 3 6 1 1 2-2 6h-2l-3 9-3-1-2-9-1-19z" fill="#617B91"/>
<path transform="translate(684,638)" d="m0 0 13 1v1l-6 1 4 5h-42l-1-2 6-3 7-2z" fill="#62809D"/>
<path transform="translate(444,398)" d="m0 0 4 2 3 3 3 7 2 5 2 1 2 12-1 16h-2l-2-5-5-21-6-18z" fill="#BE9D86"/>
<path transform="translate(675,473)" d="m0 0h2l-2 4-4 2v2l-7 5-1 2 5-2h3l-1 4-3 7-3 14v2l4 1-7 5h-5l-1-2 2-7h2l2-4 3-5 1-7 2-5-10 3 1-4 5-5-5 1 4-3z" fill="#758FA6"/>
<path transform="translate(623,729)" d="m0 0h1l1 8v11l-3 15-4 8-5 9-4 4-8 7-3 3 2-5 13-20 7-16 2-7z" fill="#6D4C3A"/>
<path transform="translate(517,319)" d="m0 0 3 3-1 22-2 9-2 12-6-2-1-6 2-6 5-14 1-4-2-1v-8h2z" fill="#AD8369"/>
<path transform="translate(623,508)" d="m0 0h3l1 2v13l-2 12-2 3v7l-1 3v20l-3 8-3 2v-9l3-28 2-7 1-10 2-8z" fill="#91A5B6"/>
<path transform="translate(648,620)" d="m0 0h25l19 2 26 6 2 4-8-1-8-2-10-2-9-2-9-1-30-1z" fill="#304D7C"/>
<path transform="translate(539,591)" d="m0 0 3 1 2 8 2 13 1 4-3 1-1 5-3-1-3-11-1-5-3-1-2-5 2-5h2v4h2l1 2z" fill="#819DB7"/>
<path transform="translate(776,571)" d="m0 0 7 1 4 5v3l-3-1v-2l-8-1 2 5 9 5 2 4-1 5-6 3-7-1-2-3v-4l11 2v-4l-6-2v-2h-5l-1-6z" fill="#2E73F7"/>
<path transform="translate(262,802)" d="m0 0h15l8 2 4 5v5l-5-2v-2l-6-2h-17l-5 3-2 2h-3l1-7 4-3z" fill="#ABC0D1"/>
<path transform="translate(461,158)" d="m0 0 7 1v2l4 2 4 8 3 9 4 9 7 12 1 6-3-3-11-19-4-10-3-10-3-2v-2l-15 1-17 5-3 2-11 1-5 1 4-3 12-2 9-4 12-3z" fill="#AD846B"/>
<path transform="translate(517,209)" d="m0 0 2 1 2 6 4 1 1 1v9l-2-3-1-4-2 9 1 5h-2v2l-4 1-1-3-2 2v6l-1 5 1 3h-2v-2h-3l2-10-3 1v-2l4-2 5-10v-12z" fill="#BA927A"/>
<path transform="translate(450,224)" d="m0 0 3 1 1 4h5l4 2v2h3v-2l9-3-4 4-7 4-9 1-10-3-2 4-2 2h-3l-1 5h-4l-2-7 1-3 1 4 5-3h2l1-3 7-1 5 1-5-6z" fill="#CCA791"/>
<path transform="translate(504,380)" d="m0 0h3l6 8 3 3v3l-9 3-6 3h-7v-5l2-5 1-5h2v2l8 4 1-4h-2z" fill="#617C92"/>
<path transform="translate(344,744)" d="m0 0h6l1 2h-2l-1 5-4 7v5l2 2h-21l1-2 4-1 2-4 4-3h2l2-4z" fill="#7690A6"/>
<path transform="translate(438,655)" d="m0 0h5l3 4 1 5-3-1-3-3h-4v4l5 2 5 4 1 4-3 5-3 2-6-1-3-5v-3l11 3-1-3-7-4-3-2v-6z" fill="#141012"/>
<path transform="translate(672,421)" d="m0 0 2 1v9l-5 19-2 5-4 1-2 5-3 4h-2l2-9 5-10 4-10 3-8z" fill="#7691A7"/>
<path transform="translate(81,743)" d="m0 0 15 3 15 2 5 3 1 3 4 1 4 4 5 2 4 2v3l-12-6-7-2-9-4-2-2-12-2-2-2-8-3z" fill="#EAEEF3"/>
<path transform="translate(672,665)" d="m0 0h10l11 4 5 5 3 4v2h2v2l3 1 3 5-1 5-3-3-9-11-10-6-10-4z" fill="#A9BFD0"/>
<path transform="translate(451,284)" d="m0 0h6l-1 4-14 6-11 2h-11l-1-5 4-1 20-3 8-1z" fill="#E1D2CB"/>
<path transform="translate(715,822)" d="m0 0h7l7 4 5 6 1 9-3 8-4 5-5 3-4-1 1-2-8-1v-1l9-1 5-4 2-3v-9l-1-4 3 3 1 5v-7l-4-5-4-2h-11l-5 3-5 4 2-4 4-4z" fill="#95AFC4"/>
<path transform="translate(642,688)" d="m0 0 2 4-1 5-5 10-3 8-2 8-2 5-1 9-1 3 1 5 1 7-2 3-1-1-2-15 1-15 2-3v-3l2-5 2-1 1-5h2l1-5 2-9z" fill="#B79179"/>
<path transform="translate(463,655)" d="m0 0 5 1v3h-10l-1 4 10 1 4 4v6l-7 6-6-1-4-5 3-1 1 1h7l3-2v-2l-5-2h-8l-1-1v-10l1-1z" fill="#332521"/>
<path transform="translate(662,649)" d="m0 0h26l12 5-4 1-7-3-6-1h-19l-2 4-8 5-3 4h18v2l-13 2v-2h-9v-4l3-1 2-7z" fill="#8099AF"/>
<path transform="translate(459,205)" d="m0 0h7l9 3 2 4h-20l-15 3h-5v-3l10-4z" fill="#32241F"/>
<path transform="translate(230,683)" d="m0 0 8 1 4 6 2-1 1-5 10 1 2 2v7l-1 3h-2v-10h-2l-3 8-4 2 2-5-6 2v-3l-2 1-1 5-6 2 2-4 2-9-6-1-1 12-3-1 1-10z" fill="#B1AFAF"/>
<path transform="translate(679,663)" d="m0 0h9v2l5 1 6 4 10 9 2 6 5 10-1 9-2 1-2-11-6-11-2-1v-2h-2l-4-6-6-5-5-2v-2l-7-1z" fill="#728B9F"/>
<path transform="translate(325,640)" d="m0 0 10 2v13l-1 1h-10l-3-5v-6z" fill="#312826"/>
<path transform="translate(579,778)" d="m0 0 1 4-1 2h-2l1 9-1 18h-1v-17h-2l-2 4-8 12-11 11-3 1v-3l9-10 11-16 2-4 3-2 3-7z" fill="#839AAC"/>
<path transform="translate(325,565)" d="m0 0 2 1-2 6-12 6-21 8-12 5h-11l3-2 28-10 17-7z" fill="#664736"/>
<path transform="translate(617,592)" d="m0 0h1l-1 10-3 12 1 12 3 8-3 4-7-1-5 5 2-6 7-24z" fill="#91A5B6"/>
<path transform="translate(524,548)" d="m0 0 2 2 6 31v5l-3 1-1 5 2 8-5-2-1-5 1-4-1-11h3l-2-14h-2l1-8z" fill="#7C99B4"/>
<path transform="translate(269,813)" d="m0 0 6 2 3 3v4h-6v13l-4 1-1-1v-14h-3l-1 3-2-1 1-5 4-4z" fill="#9FB7CA"/>
<path transform="translate(468,158)" d="m0 0 7 6 6 8 6 19 5 10 7 19-1 3-11-26-7-11-4-11-4-10-4-4z" fill="#6D4C3A"/>
<path transform="translate(146,56)" d="m0 0h1v7h2l-3 9-4 7-2 1-1 3-5 4h-3v2l-6-1v-4l6-1 3-5 2-1 1-3h2l1-5 3-4z" fill="#4C87EE"/>
<path transform="translate(300,571)" d="m0 0 3 1-9 4-10 2-7 5h-2v6l-3 1 6 1v1h-30v-1l10-2 6-1v-3l16-8 16-4z" fill="#CBA58F"/>
<path transform="translate(265,453)" d="m0 0 2 1-7 22-1-4-2-2-8 6-8-1v-3l2-4 4-3 7 1h3l3-5 4-2z" fill="#2E77FF"/>
<path transform="translate(408,222)" d="m0 0 6 3 5 4v7l-5 3-2 3h-7l-6-5-1-5 4 2v2l4-2 2-3 4-1 2 1 1-3h-2v-2h-5z" fill="#BB9983"/>
<path transform="translate(605,749)" d="m0 0h4l1 7h4l2-2-1 5-8 16-5 8-1-4 3-8z" fill="#0A080C"/>
<path transform="translate(647,591)" d="m0 0h5l-3 1 2 16 10 3 1 2-3 1h-8l-1 4 8 1v1h-12l-4-2 4-4 5-2-5-2-1-1v-17z" fill="#627C94"/>
<path transform="translate(273,684)" d="m0 0h9l2 2v9l-2 3-8 1-4-4 1-7z" fill="#EFF3F7"/>
<path transform="translate(112,673)" d="m0 0 5 5 3 1h17l4-1 2-4h3l-1 7-6 3h-21l-6-3-1-7z" fill="#AEC2D2"/>
<path transform="translate(305,551)" d="m0 0 3 1-2 4-18 7-16 6-11 5-9 1 3-3 11-5 10-4 16-5 12-6z" fill="#684837"/>
<path transform="translate(676,417)" d="m0 0 3 3 4 13 4 6v8l-3 2v-4h-2l-1-2-4-2-2-9v-13z" fill="#91A5B6"/>
<path transform="translate(531,343)" d="m0 0 1 3-3 11-2 7 1 10-2 10-5-3-1 6-4 2-3-2 1-4 4-4 2 1v-2l5-4 1-2-3-1-2-5h2l2-9 3-7z" fill="#91A5B6"/>
<path transform="translate(456,218)" d="m0 0h12l4 1-1 3-7 2-3 1-1 3-6-1v-4l-5 1-4 4h-7l5-5 7-3z" fill="#6D4C3A"/>
<path transform="translate(127,651)" d="m0 0 4 1 1 2v7l1 2 4 2-2 4-4 4h-7l-3-4 1-5 7 1-3-8z" fill="#E2E9F0"/>
<path transform="translate(452,161)" d="m0 0h15l4 4 5 15 7 14 1 1v6l-2-1v-2h-2l-10-25v-7l-4-2v-2l-13 1-10 3-9 4h-13v-1l11-1 5-3z" fill="#B99279"/>
<path transform="translate(521,324)" d="m0 0 7 6 1 3h2l-1 6-7 16-3 2v-9l2-4-1-11z" fill="#6D4C3A"/>
<path transform="translate(462,279)" d="m0 0h5l-4 8-7 5-7 3-12 3h-9l4-2h6v-2l14-5 4-1 1-4-9 1v-2l11-3z" fill="#9A745D"/>
<path transform="translate(566,766)" d="m0 0h3l-2 4h-3l-2 4-4 7-2-1v-6l-7 1-3 2h-4l-1 4-3-4v-2h-2v-2l10-2 10-3 2-1v3l4-1 1-2z" fill="#E1E0E2"/>
<path transform="translate(699,489)" d="m0 0 2 2 1 6h-2l-3 12-2 3v-9h-3l-5 10-1-4 2-6 3-5-5 4-2-1 11-10z" fill="#758FA6"/>
<path transform="translate(688,646)" d="m0 0 6 1 7 4v2l-4 1-9-4h-26l-9 4-3 7-3 2v2l8 1v1l-10 2-1-3 2-5 2-3 2-7 6-2 18-2h14z" fill="#617B93"/>
<path transform="translate(447,110)" d="m0 0 7 3 4 3 4 2v2h-2v2h2l1 6-2 1-2-1 1 4-5-2v-5l-6-7-2-1-2-6z" fill="#6D4C3A"/>
<path transform="translate(343,799)" d="m0 0 7 1 5 5-1 5-7 4-5-1-1-2v-11z" fill="#0C0B0F"/>
<path transform="translate(382,640)" d="m0 0 5 1 1 2 3 1-1 5-3 6-5 1-2-1v-2l-3-1v-7z" fill="#130F12"/>
<path transform="translate(720,670)" d="m0 0h3v9l-2 2-1 12-3 8-2 2v-8l-5-10-1-4 5-2 5 2v-3h2z" fill="#819AB0"/>
<path transform="translate(329,561)" d="m0 0 2 1-3 4-5 1-6 6-19 8-15 5-3-1 10-5 9-3 13-8 13-6z" fill="#AA8168"/>
<path transform="translate(231,640)" d="m0 0 6 1 2 4v7l-3 4h-6l-3-5v-6z" fill="#443935"/>
<path transform="translate(404,799)" d="m0 0h6l1 1v12l-1 1h-5l2-4 1-6h-3l-1 7h-4l-1-4-2 6-6 1 1-4 3-3 1-6 4 1 3 2z" fill="#575455"/>
<path transform="translate(290,684)" d="m0 0h11v9l-1 4-4 2h-6z" fill="#D3D3D4"/>
<path transform="translate(467,366)" d="m0 0 4 4 1 7-4 2v3l6-2 5-1 8-1-1 3h-6l-3 5-6 3h-6l-2-1 1-4 3-9z" fill="#CCA791"/>
<path transform="translate(376,195)" d="m0 0h1l1 12v16l4 1v3l6 1-1 7h3l3-5 5 1v1l-5 1-1 4h-7v-5h-2v-3h-3l-1 8h-3l-1-5-4-4 1-4v2l3 1v2h3l-1-1-1-9z" fill="#B99882"/>
<path transform="translate(789,561)" d="m0 0 1 4 1 6 2 4-4 2v9l1 6-2-4-2-1-9-6-1-5 3-1 5 2 3 3-3-6-6-3 3-1h6l2 1-1-7z" fill="#BECEDB"/>
<path transform="translate(484,197)" d="m0 0 4 5 3 4 2 3 7 17h5l2 2-1 11-2 1-3-11-4-2-4-10-2-2-1-2h-2l-2-8-2-1z" fill="#B18F78"/>
<path transform="translate(645,588)" d="m0 0 7 2v1l-7 1 1 17 7 3-3 2-7 3 3 3h-6l-1-5 4-2-2-6v-14z" fill="#2C4E83"/>
<path transform="translate(390,126)" d="m0 0 2 3v6l3 6v8l-3 1v-5h-2l-1 5-2 7-2-1v-7h-2l-1 2-1-2 1-4h2v2l2-1v-11h2v4l2-1-2-7h1z" fill="#704F3D"/>
<path transform="translate(712,605)" d="m0 0h1v10l-1 7-6-2v-4l-2-1-7 1-10-1-1-3 4-1v1l7-1 10-3 3 3 2 1z" fill="#6485A9"/>
<path transform="translate(847,233)" d="m0 0h13l6 3 5 6v11l-2 2-1-1-1-7-1-4h-2l-1-3-3-1-1-2h-9l-5 1z" fill="#4181F3"/>
<path transform="translate(566,785)" d="m0 0v3l-6 11-6 8h-2l-1 5h-2l-2 4-3 5v3l-3 2v-10h2l3-6 8-10 11-14z" fill="#E1E0E2"/>
<path transform="translate(867,247)" d="m0 0h1l1 7 2-1-1 5-6 7-7 3-9-1-3-4 1-2 11 1 6-4 3-5z" fill="#89A6C2"/>
<path transform="translate(425,379)" d="m0 0h3l1 11 3-1-1 3-3 3-4 6-7 5-3-1 7-7 1-3 1-14z" fill="#231B1C"/>
<path transform="translate(480,212)" d="m0 0h1v8l-4 6-6 4-5 1v2l-5-1-2-2-5-1v-2h6l5-5h5l-4 1 1 1h6l2-1 2 1 2-9z" fill="#BB9982"/>
<path transform="translate(263,641)" d="m0 0h6l2 2v11l-3 2-6-1-1-1v-11z" fill="#282122"/>
<path transform="translate(798,558)" d="m0 0 5 1 3 6v7l-5 2-6-3-2-6 4-2z" fill="#C8D5E0"/>
<path transform="translate(665,455)" d="m0 0v3l-3 6 6-2-5 5-10 7-5 3-2 1v-8l6-2 4-7 1 2-1 2 5-5 2-4z" fill="#728DA7"/>
<path transform="translate(454,216)" d="m0 0 2 1v2l-10 3-7 5 8 2-3 2-7 3-4-1v-7l9-7z" fill="#AD8369"/>
<path transform="translate(5,91)" d="m0 0h1v68l13-6v3l-11 5h-2v31h-1z" fill="#ABC1D2"/>
<path transform="translate(501,809)" d="m0 0 5 1 4 5 5-2-2 4-2 6-5 5h-6l1-5 6-1-2-9-1-1-1 9h-3l-1-2v-7z" fill="#544844"/>
<path transform="translate(436,212)" d="m0 0 1 3 8-1 4 1 4-2h21l2 4-12-2-7-1v3l-12 2-7 4-3 3h-2v7h-1v-8l7-6-3-3z" fill="#B79077"/>
<path transform="translate(645,623)" d="m0 0h6v4l12 1-2 2-6 1v2l-3 1 2 1 25 1 5 1v1l-39-1 1-4 6-3-7-4z" fill="#627D95"/>
<path transform="translate(429,387)" d="m0 0 9 2 3 4v7h-1v-5l-6-2-2-1-2 9-5 1v3l-6 2h-7l1-3 4 1 8-6 4-7 2-2h-2z" fill="#66829E"/>
<path transform="translate(653,683)" d="m0 0h7l2 2-13 1-7 3-3 6-1 7-2 5h-2v5l-2 1-2-8 8-15 5-4z" fill="#B48E75"/>
<path transform="translate(336,475)" d="m0 0 8 2 3 1v2h-2l-1 6-2 5-4 2-2-6v-6l-2-4z" fill="#7B98B3"/>
<path transform="translate(371,136)" d="m0 0h2l-1 6-3 1-2 2-1-1v9l-3-1v9l-4 1-1 5h-2l-2 4-1-2 3-7 5-2-1-4v-7l3-8 5-1v-2z" fill="#7C5F4E"/>
<path transform="translate(136,38)" d="m0 0h8l4 2 4 8-1 11-1 4h-3l-1-17-4-4-7-2z" fill="#2F73F6"/>
<path transform="translate(465,463)" d="m0 0h1l2 10v35l-3 24-2 1 2-32 1-24z" fill="#EAEEF3"/>
<path transform="translate(327,508)" d="m0 0h1l1 13-23-1-1-3 17-1-2-2v-3h3l1-2v3h3z" fill="#6D8AA4"/>
<path transform="translate(687,500)" d="m0 0 1 2-2 3h-2l-2 4-18 12h-4l2-4 8-5h2l2-4 8-6z" fill="#627D94"/>
<path transform="translate(406,271)" d="m0 0h2l-1 13 4 1v2l-3 1 1 2 4 2-7-1-9-11v-2l6-4z" fill="#B6937B"/>
<path transform="translate(651,623)" d="m0 0h25v2l-6 1h-3l2 4h-2v2h-12l4-2 3-1-11-2z" fill="#6685A6"/>
<path transform="translate(653,668)" d="m0 0 3 1h-2v2l-9 7 4 3 8 1v1l-15 2-4 1-1 2-1-6 4-5h2l1-3z" fill="#7D99B0"/>
<path transform="translate(409,493)" d="m0 0h1v9l-3 3-4 2-15 3-23 8h-6l2-2 21-7 13-4h8v-2l3-1z" fill="#6D869C"/>
<path transform="translate(451,277)" d="m0 0 4 2-1 2-18 4-16 2 1-2 4-2 1-2 16-1z" fill="#D6B6A3"/>
<path transform="translate(673,629)" d="m0 0 3 3 5 2-1 2h-26l-3-2 4-2 17-2z" fill="#8BA6BE"/>
<path transform="translate(718,198)" d="m0 0h2l1 7 1 11 5 11-1 3h-5l-1-1-1-11-1-2-1-17z" fill="#91ADCB"/>
<path transform="translate(568,354)" d="m0 0h2l4 21 2 14 2 7-1 4-5-15-5-26z" fill="#859DB2"/>
<path transform="translate(675,221)" d="m0 0 7 1 2 3-1 6-3 2h-5l-3-5 1-5z" fill="#F8FAFC"/>
<path transform="translate(691,482)" d="m0 0h2l-1 7h-2v2l-9 9-6 3 1-6 4-5 4-4h2l1-3z" fill="#6E8BA7"/>
<path transform="translate(817,582)" d="m0 0h2l-1 9-2 4 1 3-2 4h-2l-1 4-3 5-5-1 3-5 5-7 2-10z" fill="#2E77FF"/>
<path transform="translate(682,508)" d="m0 0 3 1-5 5-5 6-5 4-9 1v-2l4-2 5-5 10-7z" fill="#708CA6"/>
<path transform="translate(675,216)" d="m0 0h5l1 4-7 3-2 2 1 8 6 2v1h-8l-4-7 1-7z" fill="#7DA0CA"/>
<path transform="translate(606,739)" d="m0 0 6 1 5 4v2h2l-1 4h-3v-2l-9 1-1 6h-1v-14z" fill="#60798F"/>
<path transform="translate(386,122)" d="m0 0 2 2 2-1 1 3-1 6-4-1-4 3v6h-2l-1-2-4 1v-2l-2-1 2-3h2l2-4 6-2z" fill="#7E604F"/>
<path transform="translate(500,141)" d="m0 0 11 6 1 4h2l1 9h-2l-1-4-3-1v-2l-4-1-2-2v-3h-2l-2-5z" fill="#725341"/>
<path transform="translate(776,571)" d="m0 0 7 1 4 5v3l-3-1v-2l-8-1 2 5 5 3v3l-5-1v-2h-5l-1-6z" fill="#3177FA"/>
<path transform="translate(673,527)" d="m0 0 1 3h5v3l-7 4-9 1-1-4h2l2-4h4v-2z" fill="#718DA6"/>
<path transform="translate(327,796)" d="m0 0h8l1 2v13l-4 2 1-11-2-3-3-1 1 10-2 4h-3l1-12z" fill="#362926"/>
<path transform="translate(626,523)" d="m0 0h1v11l-4 16 1 5v13l-3 8h-3l3-8v-20l1-5 1-7 2-5z" fill="#7F9CB6"/>
<path transform="translate(386,220)" d="m0 0h18l2 1v3l-20 2-5 1 1-4z" fill="#543A2C"/>
<path transform="translate(310,504)" d="m0 0 5 2 8 3v2h-3l2 4 3 2h-9v-4l-6-1-5-1 3-3 2-1z" fill="#7F9CB6"/>
<path transform="translate(361,758)" d="m0 0 7 1 6 2v4h-22l2-2 5-1v-3z" fill="#7690A6"/>
<path transform="translate(667,640)" d="m0 0h9l16 3 3 3-7-1-29-1 1-2z" fill="#8BA6BE"/>
<path transform="translate(660,877)" d="m0 0h5l3 3-1 7-7 2-3-4v-5z" fill="#8BA8C4"/>
<path transform="translate(672,549)" d="m0 0h3v5l-4 2-7 9-5 5h-2l2-4 2-5 5-7z" fill="#627C93"/>
<path transform="translate(419,351)" d="m0 0 3 3 9 20 5 9v2l-4-2-6-10-4-9z" fill="#53392B"/>
<path transform="translate(397,340)" d="m0 0 2 1-3 11-6 12-2-3-3 6-1 5h-1l1-9 5-9 3-6z" fill="#7F9CB6"/>
<path transform="translate(769,419)" d="m0 0 1 4v6l5-3 7-5-1 5-2 4h-2v2l-8 4-1-3h2l-2-4-4 1-1-2z" fill="#397DF8"/>
<path transform="translate(510,216)" d="m0 0 7 5-1 6-4 8-2 2h-3l1-5 4-4 2-4h-7l1-6h2z" fill="#664736"/>
<path transform="translate(691,455)" d="m0 0h3l5 19 3 16v6h-1l-2-7-3-16-1-4h-3l-1-7-1-4z" fill="#7F9CB6"/>
<path transform="translate(665,615)" d="m0 0 21 1 13 3 3 3-17-2-13-1-8-2z" fill="#ABC1D2"/>
<path transform="translate(248,519)" d="m0 0 6 2 3 10h-9l-4-8 1-3z" fill="#312523"/>
<path transform="translate(707,513)" d="m0 0h2l1 5-7 6-6 4h-5v-4l13-8z" fill="#5D7890"/>
<path transform="translate(657,651)" d="m0 0 2 1-4 4-2 5-2 3h18v2l-13 2v-2h-9v-4l3-1 2-7z" fill="#748EA4"/>
<path transform="translate(313,541)" d="m0 0 2 1zm-10 1 5 1 2 3v4l4 3-6 3-2-1 1-3-7 2 1-6-1-4z" fill="#C9BFBB"/>
<path transform="translate(709,583)" d="m0 0 2 3 3 9v14h-1l-1-8-6-2-10-3v-1l9 1-2-4 8 2-2-7z" fill="#7993A7"/>
<path transform="translate(633,583)" d="m0 0h1v26l-1 33-2-2v-19l-1-5 2-13z" fill="#738DA3"/>
<path transform="translate(381,413)" d="m0 0h1v32l-2 3-1-2v-32z" fill="#7F9CB6"/>
<path transform="translate(650,649)" d="m0 0v3l-2 8-2 2-1 6 11-2v2l-10 5v-2h-5l2-9 2-4 1-6z" fill="#2D4D81"/>
<path transform="translate(582,736)" d="m0 0 6 3 7 3h8v3l-9 1v-1h-7l2 4-5-4-2-4-2-1z" fill="#7F9CB5"/>
<path transform="translate(686,545)" d="m0 0h7l-4 4-3 1-3 3-10 2 2-1v-5l-3-1 5-2v2z" fill="#6485A8"/>
<path transform="translate(641,450)" d="m0 0 1 3 6 1 4 2v8l-3 4v-5l-7-2-1-3z" fill="#6686A9"/>
<path transform="translate(356,412)" d="m0 0 3 1-3 9-3 10-2 1 1-7-6 14-2 4-1-2 5-13 6-13z" fill="#809CB6"/>
<path transform="translate(542,390)" d="m0 0h1v12l-2 5h-7l-10-4v-3l15 4 1-9z" fill="#738DA3"/>
<path transform="translate(641,400)" d="m0 0 5 1 2 4 2 1-4 2h-2l-2 4-3 2-1-3-1 9h-1v-10z" fill="#829CB2"/>
<path transform="translate(341,641)" d="m0 0h8l3 4v10l-4-1v-11h-5v12h-3v-12z" fill="#1D1515"/>
<path transform="translate(330,562)" d="m0 0 1 3 4 1 3 1 3 6-2 4v-6h-2l-1 4-6-2v-3h-3l1-5z" fill="#CDAA95"/>
<path transform="translate(406,227)" d="m0 0 6 1 3 3h-3l-4 1-4 4h-2l-4-4-5-2 2-2z" fill="#51382B"/>
<path transform="translate(568,800)" d="m0 0 2 1-7 10-10 10-3 1v-3l9-10 5-7z" fill="#8FA3B1"/>
<path transform="translate(625,718)" d="m0 0 1 3-2 8-1 17-3 9h-2l1-7 1-8 1-7v-13h4z" fill="#38271E"/>
<path transform="translate(205,638)" d="m0 0 4 1 3 7 1 3h2v6l-3 1v-7h-4l-1 6-2 1z" fill="#201818"/>
<path transform="translate(686,451)" d="m0 0h4l1 7 2 8-1 2-5-2v-6l-5-1 2-5h2z" fill="#90A4B6"/>
<path transform="translate(250,810)" d="m0 0 1 3 3 1-1 1v12h2l1 6-5-3-1 3-2-7v-10h2z" fill="#2E77FF"/>
<path transform="translate(563,777)" d="m0 0 3 4-9 10-7 8h-2l2-6 11-13z" fill="#879DAC"/>
<path transform="translate(444,668)" d="m0 0 4 4-2 5-4 4-6-1-3-5v-3l11 3-1-6z" fill="#161012"/>
<path transform="translate(748,397)" d="m0 0 6 2 2 1v4h-6l-6 3h-3l1-7z" fill="#3078FD"/>
<path transform="translate(588,745)" d="m0 0 12 2 2 2v7h2v8l-2-1-3-11h-6l-1 2-1-4h-2z" fill="#6584A5"/>
<path transform="translate(371,636)" d="m0 0h4l-3 12v7l-5-1-1-6z" fill="#413A3A"/>
<path transform="translate(408,222)" d="m0 0 6 3 5 4v7l-5 3-2 3h-7l-2-3h6l6-5v-6h-2v-2h-5z" fill="#CCA791"/>
<path transform="translate(98,48)" d="m0 0 2 1 1 4-2 3v9l-5 2-1-2v-9z" fill="#4F88EA"/>
<path transform="translate(273,684)" d="m0 0h9l2 2v9l-2 3-8 1-4-4 1-7zm1 2-1 1v8l3 3 5-3 1-1v-7l-1-1z" fill="#83756D"/>
<path transform="translate(296,532)" d="m0 0 5 1 2 4-2 4-14-3 1-4z" fill="#ABC1D2"/>
<path transform="translate(636,439)" d="m0 0h1l1 11v19l-1 1-12 1 1 2h12l-2 8h-2v-6h-9l-2-2v-3l12-2 1-1z" fill="#809BB3"/>
<path transform="translate(399,149)" d="m0 0 4 1 3 3 3 6-1 3-7-1-2-2z" fill="#251D1E"/>
<path transform="translate(269,813)" d="m0 0 6 2-1 6h-10l-1 3-2-1 1-5 4-4z" fill="#CDD9E3"/>
<path transform="translate(468,809)" d="m0 0 5 1 2 3v12l-1 3h-6l-2-1-1-4 6 1v-12l-4 1z" fill="#3A2B26"/>
<path transform="translate(459,667)" d="m0 0 6 1 4 2-2 4-2 1h-7l-4-2 1-5z" fill="#E7E9EB"/>
<path transform="translate(425,361)" d="m0 0 4 4v3h2l6 10 2 7v4l-6-3 1-2 2 1-8-15z" fill="#AD856C"/>
<path transform="translate(704,843)" d="m0 0 2 3 4 4 2 1v2h10l-2 1-1 3h-7l-5-3-6-7 1-2 2 1z" fill="#719AD5"/>
<path transform="translate(297,637)" d="m0 0h10v2h-2v16h-5v-15l-3-1z" fill="#3F2D27"/>
<path transform="translate(689,498)" d="m0 0h2l-2 5-2 6-2 9h-2l-1 3-9 7-1-2 8-7 2-4-5 2 6-7 1-5 3-3z" fill="#6988A8"/>
<path transform="translate(103,45)" d="m0 0h10l4 2v5l-5-1-7-1-4 2-2-3z" fill="#4382F3"/>
<path transform="translate(562,849)" d="m0 0h5v2l2 1-8 4-9 1 1-5z" fill="#CCA791"/>
<path transform="translate(718,628)" d="m0 0h3l1 2v7l-2 3v-2l-6-1-9-3-4-2h19z" fill="#6D89A3"/>
<path transform="translate(516,809)" d="m0 0 5 1 4 2v13l-2 2h-8v-2l5-2h3l-2-3-1-8-4-1z" fill="#57453D"/>
<path transform="translate(758,644)" d="m0 0h5l-3 10-2 7-3-4-1-9z" fill="#2E77FF"/>
<path transform="translate(700,497)" d="m0 0 3 1v9h-2l-1 4h-2l-1 6-2 1-1-3 4-15z" fill="#617C94"/>
<path transform="translate(444,232)" d="m0 0 5 1 1 2-5-1-2 4-2 2h-3l-1 5h-4l-2-7 1-3 1 4 5-3h2l1-3z" fill="#CCA791"/>
<path transform="translate(709,662)" d="m0 0 6 3 2 5v5l-5-1-4-5-1-5z" fill="#7891A5"/>
<path transform="translate(127,651)" d="m0 0 4 1 1 2v7l1 3-4 3-7-1-1 3 1-5 7 1-3-8z" fill="#AFC2D3"/>
<path transform="translate(659,539)" d="m0 0 2 1-1 3-1 7-1 4 1 1-1 7-1 3h-2v2l5-3-2 4-5 2v2l-2-1 5-10v-9l1-7-2-4z" fill="#748FA6"/>
<path transform="translate(416,344)" d="m0 0 3 3 7 8 3 7 2 2v3l3 1 3 6h-3l-3-4v-2h-2l-3-6-3-3-3-7h-2z" fill="#C2A089"/>
<path transform="translate(369,215)" d="m0 0 2 4 1 9 1 3 3 1 1 5h2v11l-3-3-1-12-4-1-1 3h-1z" fill="#D0B09C"/>
<path transform="translate(386,162)" d="m0 0 2 2v5l-2 6-4 4h-2l-2 4-3 4-2 3 1-8 1-2h2l1-3 6-5v-7z" fill="#735240"/>
<path transform="translate(545,365)" d="m0 0 1 3v12l-2 14h-3l1-10 1-5v-7l-4 5-4 4 1-6 5-4z" fill="#819BB0"/>
<path transform="translate(549,345)" d="m0 0 2 1v11l-3 6h-5l1-4 2-9h2z" fill="#7690A6"/>
<path transform="translate(526,210)" d="m0 0h1v19l-2 7-5-1 1-5-1-2 2-9 2 1 1 4z" fill="#C6A58F"/>
<path transform="translate(705,680)" d="m0 0 4 2 6 11 1 7-2 5h-1l-2-11-6-11z" fill="#402F28"/>
<path transform="translate(230,685)" d="m0 0 6 1-1 10-3 3-5-1 2-1v-10z" fill="#F1F5F8"/>
<path transform="translate(559,500)" d="m0 0 10 2 30 10h8l2 2h-11l-18-6-13-4-7-1z" fill="#839DB4"/>
<path transform="translate(750,409)" d="m0 0h7l1 4-5 5-3 2-4-1-1-5h6z" fill="#2E77FF"/>
<path transform="translate(742,387)" d="m0 0h15v3l3 1-3 1h-16l-1-2z" fill="#2D75FE"/>
<path transform="translate(419,292)" d="m0 0 1 4 18-1v1l-6 1 9-1 5-1-1 2-13 3h-10l-2-1v-2h-2v-2h-2l1-2 2 1z" fill="#B58C73"/>
<path transform="translate(419,799)" d="m0 0 6 1-1 5h-2l-1-3-3 3h-2l2 4 4 1 1-3 3 1 1 3-6 2-5-2-1-1 1-9z" fill="#382923"/>
<path transform="translate(294,504)" d="m0 0 1 2-1 2-21 5-12 1v2l-7 2v-2l5-3 27-5v-2h6z" fill="#EAEEF3"/>
<path transform="translate(342,449)" d="m0 0h1v11l-5 11h-2v-7l4-13h2z" fill="#7290AD"/>
<path transform="translate(448,265)" d="m0 0 1 4-6 5-2 3-5 2h-7l3-3 14-9z" fill="#6D4C3A"/>
<path transform="translate(518,178)" d="m0 0h1l1 18 1 4-3-1-8 16-3 3 1-7 9-16z" fill="#BD9B86"/>
<path transform="translate(583,747)" d="m0 0 4 3v2h-2v7l2 1-1 7-2 2-1-3-4 1-1-4 5-5z" fill="#748EA5"/>
<path transform="translate(296,582)" d="m0 0 2 1-11 5-7 3h-11l3-2 17-6z" fill="#4E3629"/>
<path transform="translate(553,339)" d="m0 0 7 1 2 2-2 2v6l-4 5-4 1 1-2h2l1-3h2l-6-6z" fill="#91A6B8"/>
<path transform="translate(459,205)" d="m0 0h7l9 3 2 4h-25l4-2 8-1-4-2z" fill="#53392C"/>
<path transform="translate(609,747)" d="m0 0 6 1v2h3v-2h2l-3 9h-3l-4-1-1-7-3-1z" fill="#241C1D"/>
<path transform="translate(696,699)" d="m0 0 3 1 7 10 2 3-1 4-3 3-1-5-7-14z" fill="#6C5041"/>
<path transform="translate(676,554)" d="m0 0 3 1-8 5-8 10-1 4-4 4-3-1 3-3 3-7 8-9 2-3z" fill="#6E8BA7"/>
<path transform="translate(445,549)" d="m0 0h5l-2 6-1 4-7 2-1-4 3-5z" fill="#7F9CB6"/>
<path transform="translate(682,514)" d="m0 0 1 2-7 8-4 2v2l-6 1 2-5z" fill="#617B91"/>
<path transform="translate(536,323)" d="m0 0 2 2-1 9-3 7-2 2-1-2-3 2 3-10z" fill="#93A5B4"/>
<path transform="translate(482,875)" d="m0 0h14l7 2v1l-15 2h-8l2-3z" fill="#EAEEF3"/>
<path transform="translate(674,662)" d="m0 0h11l-2 2 3 2-14-1v3l-12 1-6 1 2-2 7-2h6v-2l-3-1z" fill="#819AAD"/>
<path transform="translate(530,577)" d="m0 0 2 4v5l-3 1-1 5 2 8-5-2-1-5 1-4v-5l2-1z" fill="#7B98B2"/>
<path transform="translate(648,406)" d="m0 0h2l1 8-4 4-3-1-2-6 2-4z" fill="#ABC1D2"/>
<path transform="translate(460,290)" d="m0 0 1 4-7 7-5 3h-2v2l-4 1v3l-4 1-7-3 4-1 7-2 3-3 6-2v-2l5-3z" fill="#CCA791"/>
<path transform="translate(712,824)" d="m0 0h11l6 4 3 4v12h-1l-3-12-4-4-3-1h-9l-2-2z" fill="#2E77FF"/>
<path transform="translate(675,473)" d="m0 0h2l-2 4-4 2v2l-7 5-2-1 1-2-5 1 4-3zm-15 13 2 1-5 4 2-4z" fill="#6D8AA6"/>
<path transform="translate(383,832)" d="m0 0h2v11l5-1-1-10 4 1v12l-8 1v-2h-2z" fill="#A2A0A0"/>
<path transform="translate(714,652)" d="m0 0 5 2-1 5h-2l2 1-1 3-3-1-3-3-2-1v-2l-7-2v-1l8 1z" fill="#4F6785"/>
<path transform="translate(327,643)" d="m0 0 5 1v8l-1 1h-5l-2-3v-6z" fill="#E0E5E9"/>
<path transform="translate(442,518)" d="m0 0h5l3 3-1 4-5 2-5-4v-4z" fill="#B29B8D"/>
<path transform="translate(445,101)" d="m0 0 4 1 3 3h-4v-2l-2 1 1 2h-9l-5 1-1-3h-6v-1z" fill="#B1927C"/>
<path transform="translate(220,638)" d="m0 0h3v17h-3v-8h-3v-5h2z" fill="#332826"/>
<path transform="translate(408,266)" d="m0 0h2l-1 6-4 1-6 5h-2l3 6-5 1-2-1-1-5h2l1-3 5-1z" fill="#CCA791"/>
<path transform="translate(276,641)" d="m0 0 3 2 3 8h2l-1 6-3 5h-3l1-10-2-6z" fill="#312421"/>
<path transform="translate(247,640)" d="m0 0 7 2 1 1v12l-3-1v-10h-4l-1 12h-2v-12z" fill="#281D1B"/>
<path transform="translate(358,641)" d="m0 0h5l-1 7 1 2v6h-6l1-8-1-1v-5z" fill="#1A1516"/>
<path transform="translate(691,390)" d="m0 0h1v25h-1v-5h-2l-2 2-1-8 1-6 3-4z" fill="#538AE6"/>
<path transform="translate(660,614)" d="m0 0h5v2l7 2v1h-18l-4-1 1-3z" fill="#7E9BB5"/>
<path transform="translate(388,360)" d="m0 0h1l-1 9-2 9h-2l-1 6h-1v-7l3-13z" fill="#7791A8"/>
<path transform="translate(462,279)" d="m0 0h5l-3 5-2 2h-3v2h-2v-4l-9 1v-2l11-3z" fill="#452F25"/>
<path transform="translate(97,65)" d="m0 0h3l3 5 5 4 1 6h-2l-2-3-7-4v-3h-2z" fill="#3E7EF2"/>
<path transform="translate(328,798)" d="m0 0 4 1 2 3-1 8-1 3h-3l-1-8z" fill="#D1D7DD"/>
<path transform="translate(469,671)" d="m0 0 2 1-2 4-5 4-6-1-4-5 3-1 1 1h7z" fill="#281E1E"/>
<path transform="translate(606,671)" d="m0 0h7l1 2 7 3 3 4-6-1-4-2h-8z" fill="#6D4C3A"/>
<path transform="translate(707,636)" d="m0 0h7l6 2-3 2-2 4-7-1-1-2z" fill="#2E4D7F"/>
<path transform="translate(329,543)" d="m0 0 2 4 1 15-10 1 4-3 1-3 2-1-1-4-3-4h2z" fill="#CBAA95"/>
<path transform="translate(188,455)" d="m0 0 18 4 8 1h27v1l-5 1h-24l-17-3-8-1z" fill="#98B2CA"/>
<path transform="translate(480,212)" d="m0 0h1v8l-4 6-2 2-5-1h-3l-4-3 2-2h5l-4 1 1 1h6l2-1 2 1 2-9z" fill="#B8927A"/>
<path transform="translate(503,158)" d="m0 0 5 1v4h3l1 3 4 5v2h-5l-2-1-1-7-3-2h-2z" fill="#251D1E"/>
<path transform="translate(576,670)" d="m0 0 2 4 2 1-2 20-1 9-1 2-2-1 1-4 1-23-1-4z" fill="#8299A8"/>
<path transform="translate(642,483)" d="m0 0h1v8l-6 3-3 5-6 2 4-4h2l1-10 2-1 4 1z" fill="#8AA0B3"/>
<path transform="translate(353,743)" d="m0 0h21v1l-6 1-2 1v3h-2v2l-4-2-2-5h-5z" fill="#7690A6"/>
<path transform="translate(486,312)" d="m0 0 1 2-4 8-6 7-11 8-3-1 10-7 4-5h2l2-5z" fill="#AE907A"/>
<path transform="translate(18,153)" d="m0 0 2 2-12 6h-2v31h-1v-33z" fill="#A8BED0"/>
<path transform="translate(487,658)" d="m0 0h5l3 6-5 4h-2l-3-4 1-5z" fill="#DDE3E7"/>
<path transform="translate(372,799)" d="m0 0 6 1 2 2-1 4-3-4-3-1-1 11-4-1 1-9z" fill="#2A1F1D"/>
<path transform="translate(425,379)" d="m0 0h3l-1 15-4 2v-15z" fill="#19181D"/>
<path transform="translate(461,271)" d="m0 0 5 3 2 3-1 6-3 2 2-5h-7l2-1-1-2-3-1 1-3z" fill="#B08F79"/>
<path transform="translate(642,688)" d="m0 0 2 4-1 5-5 10-2 5-1-4 3-11 2-6z" fill="#BD9B84"/>
<path transform="translate(504,666)" d="m0 0 4 3v2l5-2 2-2 1 1v5l-2 2h-7l-3-2z" fill="#CFD5DB"/>
<path transform="translate(496,671)" d="m0 0h2l-2 6-2 2h-8l-4-5 2-1 9 1z" fill="#261D1C"/>
<path transform="translate(320,574)" d="m0 0 8 1 1 3-4 4-3 5-5 2v-2l4-2v-6l-1-3-3-1z" fill="#C9A48E"/>
<path transform="translate(249,519)" d="m0 0h5l3 2 5 1-1 4-3 6h-9v-1h8l-4-10z" fill="#ACBAC6"/>
<path transform="translate(709,513)" d="m0 0 3 3v6l-3 4h-2l-1 2h-4l1-5 6-5z" fill="#7F9CB6"/>
<path transform="translate(539,314)" d="m0 0 2 2 3 9 3 12-5-2-2-7z" fill="#718EA8"/>
<path transform="translate(332,309)" d="m0 0 3 2-4 4v5l-4 2-1-1v-6l-2-1 4-4z" fill="#2D76FE"/>
<path transform="translate(796,290)" d="m0 0h8l1 4-3 3h-6l-1-1v-5z" fill="#9AB3C7"/>
<path transform="translate(453,213)" d="m0 0h21l2 4-12-2-7-1v3h-9l3-3z" fill="#BB9279"/>
<path transform="translate(311,492)" d="m0 0 7 1 1 3 5 2 3 2 1 8-11-3v-1h8v-3l-5-2-9-6z" fill="#7F9CB6"/>
<path transform="translate(613,787)" d="m0 0 1 4-7 4-7 1v2l-6 4 2-5 8-6 8-3z" fill="#B7927A"/>
<path transform="translate(677,607)" d="m0 0 9 1v4h-8l-8-2 1-2z" fill="#ABC1D2"/>
<path transform="translate(435,212)" d="m0 0 2 4 3 3-7 6-2 10h-1v-9l4-12z" fill="#BD9B84"/>
<path transform="translate(405,799)" d="m0 0h5l1 1v12l-1 1h-5l2-4v-6z" fill="#3A302E"/>
<path transform="translate(508,658)" d="m0 0 5 1 2 5-7 4-2-4 1-5z" fill="#E0E7EC"/>
<path transform="translate(657,624)" d="m0 0h11l4 1 8 1 5 2-1 2-16-2-4-2-7-1z" fill="#7E9BB5"/>
<path transform="translate(660,609)" d="m0 0 6 1 7 2 8 1v1l-21 1h-9v-1l10-2z" fill="#6D8AA7"/>
<path transform="translate(664,469)" d="m0 0v3l-7 9-2 1-1 3 2 1-8 3v-3z" fill="#738EA6"/>
<path transform="translate(406,221)" d="m0 0h2v5h5v2h2l-1 2-5-2h-14l4-2-6-1v-1h13z" fill="#B08970"/>
<path transform="translate(503,811)" d="m0 0 4 4 1 7-3 2h-3l-2 2-1-7 3 2z" fill="#C0CCD6"/>
<path transform="translate(603,741)" d="m0 0h1v15h-2l-1-7-1-1-13-2-1-2h9l2 1h6z" fill="#7792AA"/>
<path transform="translate(723,671)" d="m0 0h2l1 7-5 12-2 2 1-11 2-2z" fill="#637688"/>
<path transform="translate(287,552)" d="m0 0 5 1 8 1-3 3-5 2-4-1-3-3z" fill="#C49E87"/>
<path transform="translate(362,145)" d="m0 0 2 2-2 5 1 9-4 1-1 5h-2l-2 4-1-2 3-7 5-2-1-4v-7z" fill="#9C8A80"/>
<path transform="translate(601,497)" d="m0 0 6 2 1 4-1 2-4 1-4-3 1-5z" fill="#D7B8A5"/>
<path transform="translate(428,334)" d="m0 0 5 1 13 3v2l-7 1-7-2-4-3z" fill="#B0917A"/>
<path transform="translate(593,792)" d="m0 0 3 1-4 10-5 10-1 3h-2l2-9h2l1-4z" fill="#050409"/>
<path transform="translate(333,684)" d="m0 0h10l1 1v11h-1l-1-9-6-1 1 7-1 3-3-1 1-6z" fill="#8C837F"/>
<path transform="translate(720,670)" d="m0 0h3v9l-2 2-1 12-2 1-3-8h3l1-8h2z" fill="#949596"/>
<path transform="translate(652,591)" d="m0 0h9l2 1v3l-9 2-3-3z" fill="#738EA6"/>
<path transform="translate(318,563)" d="m0 0h7l-1 2-21 9-3-1 13-7h2v-2z" fill="#BC9780"/>
<path transform="translate(720,219)" d="m0 0h3l4 8-1 3h-5l-1-1z" fill="#92ACC4"/>
<path transform="translate(731,209)" d="m0 0h6v4l-12 3v-4z" fill="#93ADC5"/>
<path transform="translate(799,560)" d="m0 0 4 1 1 6-5 4-3-1 1-5z" fill="#F6F8FB"/>
<path transform="translate(356,555)" d="m0 0 2 2 1 8v13l-2 2-1-7z" fill="#8EA3B6"/>
<path transform="translate(517,671)" d="m0 0 1 4-4 4h-7l-2-3 1-3 1 1h7z" fill="#1E1718"/>
<path transform="translate(232,641)" d="m0 0h5l2 4v7l-3 4h-4v-2l3-2v-8l-4-2z" fill="#241A19"/>
<path transform="translate(318,559)" d="m0 0 4 1v3l-7 1v2l-10 5-2-1 6-4 4-3h2l1-3z" fill="#CCA792"/>
<path transform="translate(338,505)" d="m0 0 9 3 5 6v2l-4-1-6-3z" fill="#7C97AE"/>
<path transform="translate(640,467)" d="m0 0 7 2-4 10-3-1-1-8z" fill="#2A416A"/>
<path transform="translate(681,452)" d="m0 0v3l-13 13-3 1 1-3 4-4-1-2z" fill="#7590A7"/>
<path transform="translate(496,387)" d="m0 0 1 3-3 10 9-2 8-3 1 4-2 1-4-1-5 3-8-1v-7z" fill="#7791A8"/>
<path transform="translate(497,215)" d="m0 0 5 1 2 3-1 7h-4z" fill="#352722"/>
<path transform="translate(463,655)" d="m0 0 5 1v3h-10v2h-3l-1 2v-6l1-1z" fill="#2B201E"/>
<path transform="translate(708,651)" d="m0 0 6 1-3 1-1 2h-3l2 1v2l5 2-3 1-13-7 3-2z" fill="#6E879C"/>
<path transform="translate(684,636)" d="m0 0h13l7 2-2 2-15-1-3-1z" fill="#7C99B3"/>
<path transform="translate(264,568)" d="m0 0h6v2l-9 4-9 1 3-3z" fill="#634534"/>
<path transform="translate(789,561)" d="m0 0 1 4 1 6 2 4-5 2-3-4-7-2 3-1h6l2 1-1-7z" fill="#CED9E4"/>
<path transform="translate(407,273)" d="m0 0h1v5l4 1 3 3v2h-3l1 3h-2l-2-2-3-1z" fill="#CBA690"/>
<path transform="translate(634,698)" d="m0 0 2 1v8h-2v5l-2 1-2-8z" fill="#AE8D76"/>
<path transform="translate(672,666)" d="m0 0 18 8v3h-3l-15-8z" fill="#8EA3B3"/>
<path transform="translate(438,655)" d="m0 0h5l3 4 1 5-3-1-6-5-5 4 2-5z" fill="#221918"/>
<path transform="translate(395,641)" d="m0 0h4l-2 14h-4l1-11z" fill="#201818"/>
<path transform="translate(688,646)" d="m0 0 6 1 7 4v2l-4 1-9-4-5-1v-1l5-1z" fill="#5E7891"/>
<path transform="translate(314,640)" d="m0 0h4l-2 15h-3v-14z" fill="#433937"/>
<path transform="translate(312,574)" d="m0 0m-2 1h2l1 3-15 5h-6l2-2z" fill="#6D4C3A"/>
<path transform="translate(662,452)" d="m0 0h2l-1 6-5 7h-2l2-9z" fill="#668198"/>
<path transform="translate(673,414)" d="m0 0 2 1v8h-3l-3 12-2 1 2-11 2-9z" fill="#7A94A9"/>
<path transform="translate(503,381)" d="m0 0 3 2v4h2l-1 5-7-3-2-5 5 1z" fill="#839AAC"/>
<path transform="translate(420,290)" d="m0 0 9 1v2l4 2-2 1h-11l-1-5z" fill="#E2CFC4"/>
<path transform="translate(373,801)" d="m0 0 4 1 1 4h-2l-1 6-1 1h-5l3-1v-9z" fill="#D8D9DA"/>
<path transform="translate(637,530)" d="m0 0h2l2 14-3 7h-1z" fill="#251D1E"/>
<path transform="translate(673,516)" d="m0 0 2 1-3 3-2 4-9 1v-2l4-2 2-3z" fill="#7692AB"/>
<path transform="translate(429,387)" d="m0 0 9 2 3 4v7h-1v-5l-6-2-3-3h-2z" fill="#8A9BAB"/>
<path transform="translate(552,345)" d="m0 0 1 2 5 2v2l-5 4-3 10h-1l1-8z" fill="#819CB1"/>
<path transform="translate(444,209)" d="m0 0 3 1 5 2-3 2-12 1v-3z" fill="#533A2D"/>
<path transform="translate(39,141)" d="m0 0h2v2l-13 8-6 3-3-1 4-3 11-6z" fill="#9AB2C7"/>
<path transform="translate(419,123)" d="m0 0h2l2 4v5l3 1v4h-3v-3l-4-2-1-5z" fill="#6D4C3A"/>
<path transform="translate(634,707)" d="m0 0 2 2-2 7-3 6-3 8-1-3 1-4v-3l3-7 2-1z" fill="#B5917A"/>
<path transform="translate(646,683)" d="m0 0h7v1l-10 3-5 4-3 6-1-3 1-9 3 1z" fill="#49342A"/>
<path transform="translate(382,642)" d="m0 0 4 2 2 6-3 2-4-1v-8z" fill="#D8DEE3"/>
<path transform="translate(615,578)" d="m0 0 1 3-2 6-3 3h-3v2l2 1-7-1-3-1 1-3 6 1 4-4z" fill="#8BA2B6"/>
<path transform="translate(457,821)" d="m0 0h3v7h-9v-4l5-2z" fill="#352C2B"/>
<path transform="translate(455,810)" d="m0 0 5 1-1 5-5 4h-3v-4l6-1-1-2-5 1z" fill="#433029"/>
<path transform="translate(231,643)" d="m0 0 5 1v8l-5 1z" fill="#F1F5F8"/>
<path transform="translate(331,642)" d="m0 0h4v13h-7l3-3z" fill="#0B080C"/>
<path transform="translate(545,631)" d="m0 0h4l-1 5-2 3-5-1v-5z" fill="#6C8AA7"/>
<path transform="translate(300,544)" d="m0 0 4 2 7 6-3 4-2-1 1-3-7 2 1-6z" fill="#B38C73"/>
<path transform="translate(314,528)" d="m0 0h14l1 4-3 1-12-2z" fill="#7D99B3"/>
<path transform="translate(134,80)" d="m0 0 2 1-1 5-4 1v2l-6-1v-4l6-1z" fill="#3A7BF5"/>
<path transform="translate(421,801)" d="m0 0 1 4 3-1 1 4h-3l-1 2-5-1-1-4z" fill="#B3C0CB"/>
<path transform="translate(308,743)" d="m0 0h19l-4 3-5 1-8-2z" fill="#2C4E83"/>
<path transform="translate(230,683)" d="m0 0 8 1v2l-8-1-1 12-3-1 1-10z" fill="#7D7673"/>
<path transform="translate(689,676)" d="m0 0 6 1 7 8-2 1-4-1-5-5z" fill="#8198AA"/>
<path transform="translate(507,655)" d="m0 0h6l3 7h-2l-3-3h-3l-3 5h-1v-6z" fill="#1E1617"/>
<path transform="translate(704,614)" d="m0 0 4 4h-2l1 3-6-2-5-2-7-1v-1h9z" fill="#7690A6"/>
<path transform="translate(360,502)" d="m0 0 4 1 1 5-2 2-4 1-1-7z" fill="#D9BAA8"/>
<path transform="translate(682,471)" d="m0 0h3v3h-2l-2 5-3 3h-3l1-5 6-5z" fill="#91A5B6"/>
<path transform="translate(264,643)" d="m0 0h4l1 2v7l-4 1-1-1z" fill="#E1E2E3"/>
<path transform="translate(645,472)" d="m0 0h1l1 5 3-3 2 1-7 7-1 5-1-4h-2v-4h2z" fill="#6A869F"/>
<path transform="translate(407,287)" d="m0 0 10 1 2 2v4l-10-3z" fill="#563B2D"/>
<path transform="translate(447,263)" d="m0 0 1 3-8 6-6 4-3-1 3-1 1-4h5v-2l6-4z" fill="#B68F77"/>
<path transform="translate(480,189)" d="m0 0 4 1 7 14-1 3-10-17z" fill="#AD866E"/>
<path transform="translate(117,80)" d="m0 0 14 3-4 2-2-1v3l-5-1-4-3z" fill="#4A83EB"/>
<path transform="translate(511,820)" d="m0 0h7l-1 5h-2v2h6v1h-7v-2l-5-2 2-1z" fill="#D6D7D9"/>
<path transform="translate(501,809)" d="m0 0h3l-1 12h-3l-1-2v-7z" fill="#595456"/>
<path transform="translate(345,800)" d="m0 0h2l4 8-1 2-5 2z" fill="#DFE1E3"/>
<path transform="translate(345,799)" d="m0 0 5 1 5 5-1 5h-3l-4-8v-2z" fill="#1C1515"/>
<path transform="translate(684,638)" d="m0 0 13 1v1l-6 1v1l-15-1v-2z" fill="#647F98"/>
<path transform="translate(641,400)" d="m0 0 5 1 2 4 2 1-4 2h-2l-2 4-1-4 1-4z" fill="#91A5B6"/>
<path transform="translate(435,374)" d="m0 0h2l6 13-1 5-4-2-1-10z" fill="#B89279"/>
<path transform="translate(528,321)" d="m0 0h7l-2 10-1-3-4-2z" fill="#315384"/>
<path transform="translate(518,247)" d="m0 0v3l-4 3h-5v10h-1v-15h3v2z" fill="#C9A894"/>
<path transform="translate(321,684)" d="m0 0h6l-2 4v10h-4z" fill="#949394"/>
<path transform="translate(206,681)" d="m0 0h6v10l-2 5-2 1v-8h1l1-6-4-1z" fill="#A6A9AD"/>
<path transform="translate(143,674)" d="m0 0h3l-1 7-1 1h-7l2-4h2z" fill="#CDD9E3"/>
<path transform="translate(485,656)" d="m0 0 2 1-2 4 3 5v2l4-2-2 4-7-3-1-1 1-8z" fill="#382E2E"/>
<path transform="translate(439,659)" d="m0 0 4 2 4 4h-2l-1 3-7-4v-4z" fill="#CDD7E0"/>
<path transform="translate(817,582)" d="m0 0h2l-1 9-3 6-2-4 3-10z" fill="#2D76FE"/>
<path transform="translate(623,506)" d="m0 0h5l1 2v6l2 1-3 7h-1l-1-14h-5z" fill="#8099AC"/>
<path transform="translate(684,491)" d="m0 0h2l-1 5-4 4-6 3v-4l5-4h2z" fill="#6583A2"/>
<path transform="translate(651,410)" d="m0 0h1v12l-7-1-1-3 5-2z" fill="#98ACBD"/>
<path transform="translate(381,228)" d="m0 0h7l-1 7h3l3-5 5 1v1l-5 1-1 4h-7v-5h-2v-3z" fill="#C09D86"/>
<path transform="translate(710,214)" d="m0 0h6v3l-7 2h-6l1-3z" fill="#9DB5C9"/>
<path transform="translate(269,822)" d="m0 0 2 2 1 11-4 1v-11z" fill="#DBE3EB"/>
<path transform="translate(384,799)" d="m0 0 3 1 1 7h-2l-2 4h-1v-10z" fill="#EBEFF3"/>
<path transform="translate(549,693)" d="m0 0 6 4-2 5h-4l-2-3v-3h2z" fill="#627C93"/>
<path transform="translate(505,663)" d="m0 0 4 4 6-3-1 5-2 2h-4v-2l-3-1-1-4z" fill="#382925"/>
<path transform="translate(341,641)" d="m0 0h5l-3 1v13h-3v-12z" fill="#171213"/>
<path transform="translate(666,598)" d="m0 0 4 1-3 1h-10l2 9h-3l-2-4-1-5 2-1z" fill="#7690A6"/>
<path transform="translate(654,464)" d="m0 0 1 3-6 9-3 2v-8l6-2z" fill="#7C98B1"/>
<path transform="translate(379,805)" d="m0 0 2 4v3l4 1h-11l2-7z" fill="#918E8F"/>
<path transform="translate(625,718)" d="m0 0 1 3-3 16-2 1v-18h4z" fill="#412E25"/>
<path transform="translate(714,686)" d="m0 0 4 4 1 6-3 7-1-3z" fill="#839AAE"/>
<path transform="translate(665,685)" d="m0 0h7l12 4 3 3-7-1-8-3-7-2z" fill="#AF8D76"/>
<path transform="translate(269,588)" d="m0 0 3 2 6 1v1h-30v-1l15-1z" fill="#B5947D"/>
<path transform="translate(709,583)" d="m0 0 2 3 3 9v14h-1v-9h-2l-1-8z" fill="#7F9BB5"/>
<path transform="translate(379,510)" d="m0 0 3 1-3 2-14 5h-6l2-2z" fill="#7993A9"/>
<path transform="translate(617,506)" d="m0 0h4v3l-8 3-1 1h-5v-2z" fill="#6A859D"/>
<path transform="translate(531,385)" d="m0 0v3l-5 5-5 4-2 3-1-5 3-2v-2l7-2z" fill="#91A5B6"/>
<path transform="translate(371,210)" d="m0 0h2l2 4v10h-3l-1-6z" fill="#261D1E"/>
<path transform="translate(399,168)" d="m0 0 17 1v2l2 1-16-1-4-2z" fill="#B79077"/>
<path transform="translate(396,152)" d="m0 0h2l-1 11h-4v-10z" fill="#261D1E"/>
<path transform="translate(573,790)" d="m0 0h1v6l-3 4-6 2 5-9z" fill="#6A747E"/>
<path transform="translate(638,679)" d="m0 0 1 2 9 1-2 2-8 2-1 2-1-6z" fill="#49688E"/>
<path transform="translate(691,597)" d="m0 0 5 1 1 7-2 2-4 2-2 2 1-4 3-5z" fill="#6E8BA7"/>
<path transform="translate(783,585)" d="m0 0 4 1 2 4-1 5-2 1v-3l-3-1 1-4-2-1z" fill="#367BF8"/>
<path transform="translate(742,413)" d="m0 0h5l-2 1 2 5 5-1 5-5 2 1-4 5-3 2h-6l-4-5z" fill="#9DB5C9"/>
<path transform="translate(401,284)" d="m0 0h9l1 3-3 1 1 2 4 2-7-1z" fill="#BE9A83"/>
<path transform="translate(326,798)" d="m0 0 2 4 1 6-2 4h-3l1-12z" fill="#201817"/>
<path transform="translate(571,754)" d="m0 0 7 1v2l-2 1-1 4-3-1-1-3-4-1v-2z" fill="#E1E0E2"/>
<path transform="translate(633,716)" d="m0 0h1l-1 7-2 5-1 9h-3l2-11 3-9z" fill="#BD9B84"/>
<path transform="translate(689,626)" d="m0 0 13 1 4 2 6 1v1h-9l-5-2-7-1z" fill="#617B91"/>
<path transform="translate(334,582)" d="m0 0h1v10h-7l1-3h2l2-6z" fill="#537298"/>
<path transform="translate(778,571)" d="m0 0 6 2 3 4v3l-3-1v-2l-7-2z" fill="#2770FC"/>
<path transform="translate(504,380)" d="m0 0h3l7 9-1 4h-3l-2-7-1-3-3-1z" fill="#313D55"/>
<path transform="translate(427,367)" d="m0 0 2 3 7 13v2l-4-2-3-5-2-7z" fill="#6D4C3A"/>
<path transform="translate(548,362)" d="m0 0h1v7l-2 8h-2v-14z" fill="#819AAD"/>
<path transform="translate(408,222)" d="m0 0 6 3 5 4-2 6h-3l1-5v-2h-2v-2h-5z" fill="#C3A089"/>
<path transform="translate(393,221)" d="m0 0h13v3h-13z" fill="#3D2A22"/>
<path transform="translate(459,815)" d="m0 0 2 1v3 8h-1v-6l-5 2v-2l-4-1 5-3z" fill="#AEBECB"/>
<path transform="translate(482,809)" d="m0 0 5 1 1 2-3 2 2 4-3 3-2-7z" fill="#3B2E29"/>
<path transform="translate(583,718)" d="m0 0h7l7 3-3 2-1-1-16-1 3-2z" fill="#91A5B6"/>
<path transform="translate(283,686)" d="m0 0h1v9l-2 3-8 1-2-2 2-2 2 2 5-3z" fill="#9D9998"/>
<path transform="translate(704,692)" d="m0 0h2v2h2l2 7-1 2h-2l-4-8z" fill="#7690A6"/>
<path transform="translate(660,683)" d="m0 0 10 1-3 3h-10l-8-1v-1l11-1z" fill="#B39C8E"/>
<path transform="translate(650,649)" d="m0 0v3l-2 8-4 2 2-10z" fill="#2F4D7F"/>
<path transform="translate(694,497)" d="m0 0h2v2h2l-1 10-2 3v-9h-2z" fill="#7D95A7"/>
<path transform="translate(375,212)" d="m0 0h1l1 7v9l2 1-2 3v-3h-2l-3-3v-2h3z" fill="#5C4030"/>
<path transform="translate(517,209)" d="m0 0 2 1 1 3v7l-2 2-2-1v-8z" fill="#CBA690"/>
<path transform="translate(395,169)" d="m0 0 3 1-4 3-5 2-5 4h-2l2-4zm-15 10 2 1-2 1z" fill="#AF866C"/>
<path transform="translate(572,809)" d="m0 0h3v6l1 3-2 2h-3v-10z" fill="#E3E4E7"/>
<path transform="translate(607,737)" d="m0 0 8 1 3 3 1 5h-2l-5-5-6-1-2 1 1-3z" fill="#6F8BA7"/>
<path transform="translate(712,689)" d="m0 0 2 1 2 5-1 9-2 1-2-12h2z" fill="#5B4032"/>
<path transform="translate(686,632)" d="m0 0h8l8 2v1h-15l-3-2z" fill="#2B4A7B"/>
<path transform="translate(294,579)" d="m0 0h6l-2 2-15 5-3-1 10-5z" fill="#AD866D"/>
<path transform="translate(572,379)" d="m0 0h2l4 17-1 4-5-15z" fill="#8AA1B6"/>
<path transform="translate(460,333)" d="m0 0 3 2-3 3-8 2h-6l2-2 11-4z" fill="#694937"/>
<path transform="translate(488,812)" d="m0 0 2 1 2 9 3 4v3h-4l-3-13z" fill="#382B28"/>
<path transform="translate(382,640)" d="m0 0 5 1 1 2 3 1-1 5-2 1-4-7-3-2z" fill="#2F2422"/>
<path transform="translate(690,640)" d="m0 0 9 1 2 1v2l6 2-1 2-15-6z" fill="#2C4E83"/>
<path transform="translate(741,431)" d="m0 0h6l1 3-2 3h-5l-1-4z" fill="#256DFB"/>
<path transform="translate(352,425)" d="m0 0 1 2-4 12-3 5-1-4 6-14z" fill="#7690A6"/>
<path transform="translate(667,396)" d="m0 0 5 5-1 2h-2v4h-3v-9z" fill="#8199A9"/>
<path transform="translate(427,381)" d="m0 0h1l1 9 3-1-1 3-3 3-4 6v-3l2-4z" fill="#3C2C27"/>
<path transform="translate(545,365)" d="m0 0 1 3-2 4-7 6-1 3-1-4 5-5z" fill="#91A5B6"/>
<path transform="translate(431,227)" d="m0 0h1v6h7l-2 5-4 1-2-4z" fill="#BC967E"/>
<path transform="translate(391,228)" d="m0 0 4 1h-2l-2 6-4 1-1-5z" fill="#9F7E68"/>
<path transform="translate(98,48)" d="m0 0 2 1 1 4-3 4-4-1 2-6z" fill="#4A83E9"/>
<path transform="translate(515,814)" d="m0 0 4 1v5l-6 1-2-2z" fill="#9EA6AE"/>
<path transform="translate(362,762)" d="m0 0h11v3h-13z" fill="#6485A9"/>
<path transform="translate(653,668)" d="m0 0 3 1h-2v2l-8 6h-4l1-3z" fill="#6E89A1"/>
<path transform="translate(433,672)" d="m0 0 6 2-1 3h2v2l2 2-6-1-3-5z" fill="#302421"/>
<path transform="translate(303,640)" d="m0 0h1v15h-4l1-14z" fill="#0B080C"/>
<path transform="translate(798,558)" d="m0 0 5 1 1 4-4-2-3 5 1 6-3-1-2-6 4-2z" fill="#9DB5C9"/>
<path transform="translate(659,539)" d="m0 0 2 1-1 3-1 7-2 5-1-3 1-7-2-4z" fill="#7690A6"/>
<path transform="translate(694,485)" d="m0 0h2l-1 5-4 4-4 2 2-5 1-2h2z" fill="#91A5B6"/>
<path transform="translate(438,302)" d="m0 0 2 1-2 4-4 1-6-2 1-2z" fill="#C3A089"/>
<path transform="translate(416,272)" d="m0 0 6 2v2h7l-4 2v2h-3l-2-3-5-2z" fill="#BA967F"/>
<path transform="translate(238,685)" d="m0 0 1 4-1 1-1 8-5 1 2-4 2-9z" fill="#AAAEB2"/>
<path transform="translate(239,516)" d="m0 0 2 3 3 7 2-2 2 6-3 3-5-9z" fill="#ADB8C2"/>
<path transform="translate(430,379)" d="m0 0 3 4v3l4 2-2 1-7-2 1-5z" fill="#A9B6C0"/>
<path transform="translate(571,366)" d="m0 0 2 4 1 9h-3l-2-10h2z" fill="#879FB4"/>
<path transform="translate(549,345)" d="m0 0 2 1v7l-3 6-1-4 1-8z" fill="#617B91"/>
<path transform="translate(460,288)" d="m0 0 2 1-4 6-5 2v-3l-2-1 8-4z" fill="#BB937B"/>
<path transform="translate(451,284)" d="m0 0h6l-1 4-4 2-3-1-1-3h3z" fill="#DABCA9"/>
<path transform="translate(438,272)" d="m0 0 4 1-5 4-1 2h-7l3-3z" fill="#573C2E"/>
<path transform="translate(459,222)" d="m0 0h4v3h-2l-1 3-6-1 1-3z" fill="#392922"/>
<path transform="translate(374,187)" d="m0 0h2v25h-1l-2-22z" fill="#B28D74"/>
<path transform="translate(583,747)" d="m0 0 4 3v2h-2v7l-4 5-3-1 5-5z" fill="#8299AC"/>
<path transform="translate(626,725)" d="m0 0h2l-2 14-2-2v-11z" fill="#AD876E"/>
<path transform="translate(634,686)" d="m0 0 2 2-2 9-3 2 1-9z" fill="#060509"/>
<path transform="translate(464,664)" d="m0 0 5 1 2 3-1 4-5-3-3-3h2z" fill="#392D2A"/>
<path transform="translate(386,650)" d="m0 0h2l-1 5-5 1-3-3 3-2z" fill="#271D1C"/>
<path transform="translate(681,641)" d="m0 0 11 2 3 3-7-1-9-1 2-1z" fill="#7F9CB6"/>
<path transform="translate(371,636)" d="m0 0h4l-1 4-4 7h-1v-7z" fill="#1B1618"/>
<path transform="translate(292,585)" d="m0 0h6l-1 5h-8z" fill="#E3C8B5"/>
<path transform="translate(409,493)" d="m0 0h1v9l-3 3-9 1v-1h5v-2l3-1z" fill="#446086"/>
<path transform="translate(315,305)" d="m0 0h2l-5 10-3-3 1-4 5-1z" fill="#598EE7"/>
<path transform="translate(457,281)" d="m0 0h2l-1 4 5-1-1 2h-3v2h-2v-4l-9 1v-2z" fill="#6D4C3A"/>
<path transform="translate(842,255)" d="m0 0 7 6-3 2 2 3-4-2-5-5 1-2 2 1z" fill="#99B3CA"/>
<path transform="translate(395,228)" d="m0 0h9l-2 6-9-4z" fill="#6B4A39"/>
<path transform="translate(437,165)" d="m0 0h6l-1 2-6 2-2 1h-13v-1l11-1z" fill="#C29D85"/>
<path transform="translate(544,844)" d="m0 0 5 1v5l-5 1-2-4z" fill="#CCA791"/>
<path transform="translate(629,781)" d="m0 0 4 1 1 6-4 2-1-1z" fill="#AD8C74"/>
<path transform="translate(546,762)" d="m0 0 2 2-12 3-6 1-2-2 16-3z" fill="#E1E0E2"/>
<path transform="translate(655,632)" d="m0 0h10l-4 2-2 2-8-1 1-2z" fill="#809DB6"/>
<path transform="translate(330,562)" d="m0 0 1 3h2l-1 8h-2v-3h-3l1-5z" fill="#C3A08A"/>
<path transform="translate(446,438)" d="m0 0h5l1 5-1 1h-5z" fill="#C1A18B"/>
<path transform="translate(672,421)" d="m0 0 2 2-2 6-2 10-2 1 1-8z" fill="#627F9B"/>
<path transform="translate(698,369)" d="m0 0h1l-1 7-3 3-2-6z" fill="#2E77FF"/>
<path transform="translate(529,352)" d="m0 0h1v10l-2 10h-1l-1-10 2-5z" fill="#7F9CB6"/>
<path transform="translate(432,290)" d="m0 0 7 1-2 3h-10l2-1v-2z" fill="#EEF0F4"/>
<path transform="translate(448,257)" d="m0 0h3l1 3-1 9h-2l-1-4z" fill="#AE856C"/>
<path transform="translate(444,252)" d="m0 0 7 3-4 2v2h-2v-2h-2v-2h-5l1-2z" fill="#CCA791"/>
<path transform="translate(71,105)" d="m0 0 1 4-3 6-5 9-2-3 6-9z" fill="#ABC1D2"/>
<path transform="translate(276,641)" d="m0 0 3 2 2 7v4h-2l-3-8z" fill="#191212"/>
<path transform="translate(671,402)" d="m0 0 2 1v8l-2-2-3 4 1-10z" fill="#91A5B6"/>
<path transform="translate(734,396)" d="m0 0v3l-4 9-2-1 1-7 3-3z" fill="#2E77FF"/>
<path transform="translate(578,353)" d="m0 0 10 3-1 3h-6l-1-3h-2z" fill="#91A5B6"/>
<path transform="translate(523,325)" d="m0 0 4 2h3l2 1v5h-3l-5-5z" fill="#33241E"/>
<path transform="translate(526,309)" d="m0 0 7 3v2l6-1-2 5-7-5-4-2z" fill="#6A4D3F"/>
<path transform="translate(446,276)" d="m0 0 5 1-3 2-6 2h-7l3-2z" fill="#C4A18A"/>
<path transform="translate(420,170)" d="m0 0h13l-3 2-11 1-3-1z" fill="#D6B7A4"/>
<path transform="translate(426,103)" d="m0 0h14v2l-3 2-5-1v-2h-6z" fill="#B89882"/>
<path transform="translate(501,823)" d="m0 0h7l-1 4-1 1h-6z" fill="#463833"/>
<path transform="translate(405,803)" d="m0 0h3v6l-4 4v-2l-3-1h3z" fill="#D5DCE2"/>
<path transform="translate(419,799)" d="m0 0 6 1-1 5h-2l-1-3-4 2v-4z" fill="#2C201D"/>
<path transform="translate(306,571)" d="m0 0 2 1-10 7-5 1-1-2h4v-2z" fill="#B79179"/>
<path transform="translate(329,543)" d="m0 0 2 4v6l-4-2-2-3h2z" fill="#8197AB"/>
<path transform="translate(674,531)" d="m0 0 2 2-4 4h-6l1-3z" fill="#64819D"/>
<path transform="translate(290,684)" d="m0 0 4 1-1 1-1 12-2-1z" fill="#695F5A"/>
<path transform="translate(487,655)" d="m0 0h6l1 5-7-1-1 2h-2l2-4z" fill="#161012"/>
<path transform="translate(717,639)" d="m0 0 3 1-2 7-4-1-3-2 4-1z" fill="#617B91"/>
<path transform="translate(701,632)" d="m0 0h14l1 3-11-1z" fill="#7E9BB5"/>
<path transform="translate(556,604)" d="m0 0h1l1 14-1 4-3-1v-2h2z" fill="#91A5B6"/>
<path transform="translate(248,572)" d="m0 0h7l-2 2h7l-2 2h-10l-1-2z" fill="#BD9881"/>
<path transform="translate(658,572)" d="m0 0 1 2-2 3h-2l-1 4-3 3h-2l2-5z" fill="#6A89A7"/>
<path transform="translate(703,501)" d="m0 0 2 3 4 7v2l-4-1v-3l-4-2h2z" fill="#6A8AAC"/>
<path transform="translate(311,492)" d="m0 0 7 1 1 3 5 2v2l-5-2-8-5z" fill="#7C99B2"/>
<path transform="translate(524,400)" d="m0 0 12 3-3 3-9-3z" fill="#87A0B5"/>
<path transform="translate(519,306)" d="m0 0 7 3 1 3-2 1-5-2z" fill="#3E2A1F"/>
<path transform="translate(380,229)" d="m0 0h3v3h2v5l-4-3-1 5h-1v-8z" fill="#D5B6A3"/>
<path transform="translate(289,811)" d="m0 0 3 4v7l-3-1-1-7z" fill="#2E77FF"/>
<path transform="translate(575,811)" d="m0 0 4 2-1 4-4 4 1-4-1-5z" fill="#A9BDCD"/>
<path transform="translate(610,745)" d="m0 0h6v3h2v2h-3v-2l-10 1v-2z" fill="#2C4E83"/>
<path transform="translate(557,588)" d="m0 0 2 3 1 6-2 1v6h-1l-1-11z" fill="#8DA3B6"/>
<path transform="translate(290,586)" d="m0 0 2 1-2 4h-10l4-3z" fill="#C9A994"/>
<path transform="translate(699,574)" d="m0 0 4 1 2 4-1 4-4 1v-3h2l-1-5h-2z" fill="#8199A8"/>
<path transform="translate(798,573)" d="m0 0h6l-1 6-7-1 3-1z" fill="#4683F0"/>
<path transform="translate(790,561)" d="m0 0 6 3-2 2v3l-5-1z" fill="#2E77FF"/>
<path transform="translate(295,498)" d="m0 0h6l7 2-2 3-7-1z" fill="#7D99B2"/>
<path transform="translate(691,482)" d="m0 0h2l-1 7h-2l-1 2v-4l-3 1 1-3z" fill="#7791A7"/>
<path transform="translate(683,449)" d="m0 0h4l-1 5-6 2v-3-2z" fill="#8199A8"/>
<path transform="translate(450,224)" d="m0 0 3 1 2 6-5-1-2-3z" fill="#D7B8A5"/>
<path transform="translate(433,216)" d="m0 0 2 4-1 4-2 3-1 8h-1v-9z" fill="#CCA791"/>
<path transform="translate(364,830)" d="m0 0 2 1-1 8v4h-3l1-12z" fill="#A5A9AE"/>
<path transform="translate(334,799)" d="m0 0h1l1 12-4 2 1-13z" fill="#120D0F"/>
<path transform="translate(344,801)" d="m0 0h1l1 10 4-2v3l-3 2-5-1 2-1z" fill="#6D625F"/>
<path transform="translate(283,804)" d="m0 0 4 2 2 3v5l-5-2 1-2z" fill="#A0B7CB"/>
<path transform="translate(383,797)" d="m0 0 4 1 4 4-1 4-2 1-2-7-3-1z" fill="#2A1E1B"/>
<path transform="translate(537,774)" d="m0 0h7v3h-2l-1 4-4-6z" fill="#ABC1D2"/>
<path transform="translate(239,688)" d="m0 0 6 3-3 3-1-3-2 1-1 5h-1v-7z" fill="#DFE3E8"/>
<path transform="translate(576,670)" d="m0 0 2 4 2 1-1 6h-2l-2-4z" fill="#839AAB"/>
<path transform="translate(211,646)" d="m0 0 2 1v2h2v6l-3 1v-7l-3-1z" fill="#605A59"/>
<path transform="translate(252,642)" d="m0 0 3 1v12l-3-1z" fill="#171113"/>
<path transform="translate(297,574)" d="m0 0 3 1-4 1v2l-8 1-4-2 10-2z" fill="#BD9B84"/>
<path transform="translate(663,567)" d="m0 0v3l-1 4-4 4-3-1 3-3 2-5z" fill="#7690A6"/>
<path transform="translate(709,513)" d="m0 0 2 1v7l-4 3-4-1 6-5z" fill="#7691A8"/>
<path transform="translate(675,473)" d="m0 0h2l-2 4-4 2v2l-2-1-2-2z" fill="#7690A6"/>
<path transform="translate(676,462)" d="m0 0 1 2-2 6-4-1 2-6z" fill="#91A5B6"/>
<path transform="translate(467,306)" d="m0 0 2 1-1 10-1 2h-2z" fill="#BF9C85"/>
<path transform="translate(411,230)" d="m0 0 3 1 2-1-1 5-4 2v-5l-3-1z" fill="#B49078"/>
<path transform="translate(732,832)" d="m0 0h2l1 9-1 2h-2z" fill="#8CA6BE"/>
<path transform="translate(427,758)" d="m0 0h1v7h-8v-2l6-2z" fill="#738EA5"/>
<path transform="translate(601,749)" d="m0 0h1v7h2v8l-2-1-2-13z" fill="#6E8BA7"/>
<path transform="translate(657,651)" d="m0 0 2 1-4 4-1 4-4 1 2-7z" fill="#7791A6"/>
<path transform="translate(646,614)" d="m0 0 2 1-2 2 1 1 11 1v1h-12l-4-2z" fill="#617B91"/>
<path transform="translate(394,578)" d="m0 0 3 1-3 4-6-1v-3z" fill="#869FB6"/>
<path transform="translate(689,498)" d="m0 0h2l-2 5-2 6-4-2 4-5z" fill="#6485A9"/>
<path transform="translate(653,482)" d="m0 0 1 3 2 1-8 3v-3z" fill="#708CA6"/>
<path transform="translate(665,446)" d="m0 0h2l-2 9-1-3-3 1 1-5z" fill="#6988AA"/>
<path transform="translate(428,364)" d="m0 0h3v3l3 1 3 6h-3l-3-4v-2h-2z" fill="#C09B83"/>
<path transform="translate(797,290)" d="m0 0h6l-1 4-5 1z" fill="#2E77FF"/>
<path transform="translate(421,281)" d="m0 0h5l-2 4-7 1 2-4z" fill="#E7CCBA"/>
<path transform="translate(371,224)" d="m0 0 1 2 3 1v2h2l1 7-2-1-1-3-4-4z" fill="#B5927A"/>
<path transform="translate(409,125)" d="m0 0 4 1-1 5-4-2-3-3z" fill="#80604C"/>
<path transform="translate(135,40)" d="m0 0h5l-4 2-9 9v-3l5-6z" fill="#B8C9D8"/>
<path transform="translate(343,832)" d="m0 0h2v10l-5 1 2-3z" fill="#999796"/>
<path transform="translate(645,779)" d="m0 0 1 2-2 9-2 1-1-7z" fill="#AE907A"/>
<path transform="translate(579,771)" d="m0 0h2v7h-2l-1 3-1-2 1-3-2-2z" fill="#E5EAF0"/>
<path transform="translate(699,673)" d="m0 0h2l5 6-1 3h-2v-2h-2z" fill="#696669"/>
<path transform="translate(264,641)" d="m0 0h5l2 2v8h-2l-2-8z" fill="#161012"/>
<path transform="translate(284,641)" d="m0 0h3v7l-3 3z" fill="#3D2F2B"/>
<path transform="translate(358,641)" d="m0 0h5l-2 4-3 3-1-1v-5z" fill="#1F191B"/>
<path transform="translate(102,632)" d="m0 0 2 1-9 9h-2l2-4h2v-2h2l1-3z" fill="#6794DC"/>
<path transform="translate(264,568)" d="m0 0h6v2l-6 3-4-1z" fill="#483125"/>
<path transform="translate(767,562)" d="m0 0 2 1-10 10v-3l5-6z" fill="#BBCCDA"/>
<path transform="translate(318,517)" d="m0 0h10v3l-12-1z" fill="#3F5778"/>
<path transform="translate(625,471)" d="m0 0h11l-1 2-9 1z" fill="#6887A8"/>
<path transform="translate(342,449)" d="m0 0h1v11l-2-4-3 3 2-8h2z" fill="#7994AB"/>
<path transform="translate(449,223)" d="m0 0h5l-1 4v-2h-3l-1 3v3l-4-2v-2z" fill="#B2927C"/>
<path transform="translate(473,175)" d="m0 0 2 3 4 8-1 2-3-2-3-8z" fill="#B49079"/>
<path transform="translate(28,65)" d="m0 0h6v3l-7 1v-3z" fill="#719DE1"/>
</svg>
