<?xml version="1.0" standalone="no"?>
<!DOCTYPE svg PUBLIC "-//W3C//DTD SVG 20010904//EN"
 "http://www.w3.org/TR/2001/REC-SVG-20010904/DTD/svg10.dtd">
<svg version="1.0" xmlns="http://www.w3.org/2000/svg"
 width="170.000000pt" height="50.000000pt" viewBox="0 0 170.000000 50.000000"
 preserveAspectRatio="xMidYMid meet">

<g transform="translate(0.000000,50.000000) scale(0.100000,-0.100000)"
fill="#000000" stroke="none">
<path d="M205 310 c-8 -14 3 -30 21 -30 8 0 14 9 14 20 0 21 -24 28 -35 10z"/>
<path d="M250 272 c-14 -16 -32 -32 -40 -35 -13 -5 -12 -8 2 -17 10 -6 22 -29
28 -50 14 -53 35 -53 26 -1 -4 24 0 55 9 81 8 23 15 44 15 46 0 12 -19 0 -40
-24z"/>
<path d="M135 280 c-10 -16 16 -41 38 -38 30 4 31 23 2 36 -32 15 -32 15 -40
2z"/>
<path d="M360 282 c0 -4 7 -18 17 -31 9 -13 19 -37 22 -53 8 -37 25 -37 29 -1
2 15 10 36 18 47 8 11 14 26 14 33 0 23 -20 14 -31 -14 l-10 -28 -21 28 c-19
26 -38 36 -38 19z"/>
<path d="M490 235 c-25 -61 -24 -87 2 -61 21 21 47 20 70 -1 23 -21 23 -7 -3
62 -11 30 -26 55 -34 55 -7 0 -23 -25 -35 -55z m50 -17 c0 -5 -7 -8 -15 -8
-17 0 -18 2 -9 25 5 13 8 14 15 3 5 -7 9 -16 9 -20z"/>
<path d="M607 283 c-9 -8 -9 -86 -1 -107 9 -24 24 -19 24 8 0 37 14 39 39 5
30 -40 48 -27 21 16 -18 29 -18 34 -5 45 17 14 20 40 5 40 -5 0 -17 -11 -26
-25 -9 -14 -20 -25 -25 -25 -5 0 -9 11 -9 25 0 24 -10 32 -23 18z"/>
<path d="M737 283 c-4 -3 -7 -30 -7 -60 l0 -53 40 0 c22 0 40 5 40 10 0 6 -11
10 -25 10 -16 0 -25 6 -25 15 0 8 9 15 20 15 11 0 20 5 20 10 0 6 -9 10 -21
10 -12 0 -19 5 -16 13 2 6 12 12 22 12 10 0 20 6 23 13 4 13 -59 18 -71 5z"/>
<path d="M840 230 l0 -60 30 0 c17 0 32 0 35 0 15 0 3 15 -15 18 -27 5 -26 30
3 35 l22 4 -22 8 c-32 10 -29 35 3 35 14 0 23 4 19 10 -3 6 -22 10 -41 10
l-34 0 0 -60z"/>
<path d="M945 279 c-9 -25 -1 -114 10 -112 6 1 12 17 15 35 l5 33 29 -37 c15
-21 32 -35 37 -32 15 9 11 126 -3 121 -7 -2 -13 -18 -13 -35 0 -18 -1 -32 -2
-32 -2 0 -18 17 -37 38 -28 30 -36 34 -41 21z"/>
<path d="M1134 276 c-9 -22 0 -111 11 -111 5 0 12 13 15 29 l5 28 29 -33 c33
-36 47 -25 20 15 -15 24 -15 28 1 52 23 36 8 45 -20 12 -30 -34 -35 -35 -35
-3 0 27 -17 34 -26 11z"/>
<path d="M1271 233 c-14 -37 -18 -60 -12 -66 7 -7 12 -5 17 6 8 22 42 22 67 0
20 -18 20 -17 14 12 -10 50 -36 105 -51 105 -7 0 -23 -26 -35 -57z m49 -9 c0
-8 -7 -14 -15 -14 -17 0 -18 2 -9 24 7 18 24 12 24 -10z"/>
<path d="M1390 231 c0 -33 5 -63 10 -66 6 -4 10 5 10 19 0 33 13 33 35 0 21
-32 44 -18 24 15 -11 16 -11 23 -1 33 6 6 12 15 12 19 0 18 -34 39 -61 39 -29
0 -29 0 -29 -59z m56 28 c10 -17 -13 -36 -27 -22 -12 12 -4 33 11 33 5 0 12
-5 16 -11z"/>
<path d="M201 166 c-11 -13 -11 -20 -3 -28 15 -15 24 -5 20 23 -3 21 -4 21
-17 5z"/>
</g>
</svg>
